<svg width="34" height="36" viewBox="0 0 34 36" fill="none" xmlns="http://www.w3.org/2000/svg">
<path d="M16.9977 35.1552C15.7098 35.1584 14.4426 34.8281 13.3172 34.1955L4.69142 29.3228C3.5216 28.6615 2.54751 27.6972 1.86955 26.5293C1.19159 25.3613 0.834283 24.032 0.834412 22.6782V13.318C0.834283 11.9642 1.19159 10.6348 1.86955 9.46692C2.54751 8.299 3.5216 7.33465 4.69142 6.67341L13.3172 1.80092C14.4422 1.17181 15.7071 0.841766 16.9931 0.841766C18.279 0.841766 19.5439 1.17181 20.6689 1.80092L29.3041 6.67341C30.4741 7.33448 31.4482 8.2987 32.1262 9.46667C32.8042 10.6346 33.1614 11.9641 33.1611 13.318V22.6782C33.1601 24.031 32.8023 25.359 32.1244 26.5257C31.4465 27.6924 30.473 28.6556 29.3041 29.3163L20.6783 34.1891C19.5537 34.8242 18.2863 35.1569 16.9977 35.1552Z" fill="#F99246"/>
<path d="M32.9965 17.9775V22.6328C33.0047 23.9622 32.6568 25.2709 31.987 26.4286C31.3173 27.5863 30.3491 28.5528 29.1785 29.2327L20.6399 34.0759C19.5334 34.7031 18.2762 35.0325 16.9966 35.0305C15.7171 35.0325 14.4598 34.7031 13.3533 34.0759L4.81477 29.2327C3.64375 28.5527 2.67529 27.5857 2.00554 26.4276C1.33579 25.2695 0.988034 23.9606 0.996773 22.6308V17.9775H32.9965Z" fill="#E08344"/>
<path d="M16.9978 36C15.5689 36.0013 14.1634 35.6343 12.9142 34.9337L4.2821 30.062C2.98316 29.3266 1.90171 28.255 1.14908 26.9574C0.396457 25.6598 -0.000174932 24.183 5.78776e-08 22.6792V13.32C-0.000174932 11.8162 0.396457 10.3396 1.14908 9.04203C1.90171 7.74443 2.98316 6.67262 4.2821 5.93721L12.9121 1.06575C14.1621 0.366749 15.5674 0 16.9963 0C18.4251 0 19.8305 0.366749 21.0804 1.06575L29.7146 5.93721C31.0134 6.67279 32.0947 7.74472 32.8473 9.04229C33.5999 10.3399 33.9967 11.8162 33.9967 13.32V22.6792C33.9967 24.183 33.5999 25.6596 32.8473 26.9572C32.0947 28.2548 31.0134 29.3264 29.7146 30.062L21.0846 34.9337C19.8345 35.6348 18.4278 36.0018 16.9978 36ZM16.9978 1.70072C15.8543 1.7 14.7294 1.99411 13.7299 2.55508L5.09987 7.41701C4.05891 8.00547 3.19228 8.86382 2.58936 9.90334C1.98644 10.9429 1.66908 12.1258 1.67002 13.3305V22.6898C1.66897 23.8945 1.98627 25.0777 2.5892 26.1173C3.19213 27.1568 4.05884 28.0152 5.09987 28.6036L13.7299 33.475C14.7302 34.0338 15.8547 34.3268 16.9978 34.3268C18.141 34.3268 19.2654 34.0338 20.2658 33.475L28.8958 28.6036C29.9366 28.0151 30.8031 27.1568 31.4058 26.1173C32.0086 25.0777 32.3257 23.8944 32.3246 22.6898V13.3223C32.3242 12.119 32.0064 10.9373 31.4037 9.89922C30.8011 8.86114 29.9354 8.00405 28.8958 7.41598L20.2658 2.54555C19.2663 1.98455 18.1414 1.69076 16.9978 1.69223V1.70072Z" fill="#3F3F3F"/>
<path d="M16.9977 33.1143C15.7983 33.1155 14.6186 32.8077 13.5699 32.22L6.32586 28.1321C5.23564 27.515 4.32786 26.6159 3.69586 25.527C3.06386 24.4382 2.73047 23.1989 2.72995 21.9369V14.0816C2.73044 12.8196 3.06382 11.5806 3.69583 10.4919C4.32784 9.40326 5.23565 8.50424 6.32586 7.88741L13.5689 3.79949C14.6179 3.21277 15.7974 2.90497 16.9966 2.90497C18.1958 2.90497 19.3753 3.21277 20.4244 3.79949L27.6705 7.88741C28.7611 8.50405 29.6692 9.403 30.3016 10.4917C30.934 11.5803 31.2677 12.8195 31.2685 14.0816V21.9369C31.2678 23.1992 30.9341 24.4385 30.3017 25.5273C29.6694 26.6162 28.7611 27.5153 27.6705 28.1321L20.4275 32.2148C19.3788 32.8049 18.1982 33.1144 16.9977 33.1143ZM16.9977 4.32683C16.038 4.32574 15.0939 4.5722 14.255 5.04291L7.01202 9.12362C6.13809 9.61757 5.41053 10.3379 4.90436 11.2106C4.39819 12.0833 4.13176 13.0767 4.13258 14.088V21.9443C4.13194 22.9555 4.39845 23.9485 4.90461 24.821C5.41077 25.6935 6.13824 26.4136 7.01202 26.9075L14.255 30.9956C15.0946 31.4649 16.0386 31.7109 16.9982 31.7109C17.9578 31.7109 18.9017 31.4649 19.7414 30.9956L26.9844 26.9075C27.8581 26.4136 28.5856 25.6935 29.0918 24.821C29.5979 23.9485 29.8644 22.9555 29.8638 21.9443V14.0816C29.8632 13.0715 29.5961 12.0798 29.0901 11.2085C28.584 10.3373 27.8571 9.61807 26.9844 9.12465L19.7414 5.03673C18.9024 4.56625 17.9583 4.32013 16.9987 4.32168L16.9977 4.32683Z" fill="#3F3F3F"/>
<path d="M19.3852 15.4442C19.0123 15.0956 18.7208 14.6676 18.5319 14.1912C18.0245 14.3033 17.5066 14.3601 16.9872 14.3609C16.4773 14.3603 15.9689 14.3048 15.4707 14.1954C15.1719 14.9506 14.6196 15.5759 13.9105 15.9615C13.2014 16.3471 12.3806 16.4684 11.5918 16.3047C11.6691 16.5753 11.8311 16.8133 12.0537 16.9829C12.2763 17.1526 12.5474 17.2448 12.8263 17.2456H21.1742C21.4533 17.245 21.7246 17.1529 21.9474 16.9832C22.1702 16.8136 22.3325 16.5755 22.4098 16.3047C21.8741 16.4162 21.3199 16.397 20.7931 16.2486C20.2663 16.1002 19.7822 15.827 19.381 15.4517L19.3852 15.4442Z" fill="#3F3F3F"/>
<path d="M12.2874 21.2259C12.6844 20.595 13.3079 20.1438 14.0271 19.9668C14.7463 19.7898 15.5055 19.901 16.1454 20.2768C17.014 20.4902 17.93 20.3723 18.7178 19.9457C18.9534 20.1592 19.2587 20.2773 19.5753 20.2773C19.8918 20.2773 20.1972 20.1592 20.4328 19.9457C20.7713 19.9457 21.0963 20.0801 21.3375 20.3201C21.5786 20.5601 21.7166 20.8861 21.7215 21.228V18.1031H12.2874V21.2259Z" fill="#3F3F3F"/>
<path d="M13.5657 20.8083C13.4519 20.8083 13.3427 20.8539 13.2622 20.9352C13.1817 21.0165 13.1364 21.1269 13.1364 21.2419V25.0808H13.9939V21.2419C13.9939 21.1271 13.9488 21.017 13.8686 20.9357C13.7883 20.8545 13.6794 20.8086 13.5657 20.8083Z" fill="#3F3F3F"/>
<path d="M15.2838 20.8083C15.1699 20.8083 15.0607 20.8539 14.9802 20.9352C14.8997 21.0165 14.8545 21.1269 14.8545 21.2419V25.0808H15.7119V21.2419C15.7119 21.1271 15.6669 21.017 15.5866 20.9357C15.5063 20.8545 15.3974 20.8086 15.2838 20.8083Z" fill="#3F3F3F"/>
<path d="M16.9998 20.8083C16.8859 20.8083 16.7767 20.8539 16.6962 20.9352C16.6157 21.0165 16.5705 21.1269 16.5705 21.2419V25.0808H17.4279V21.2419C17.4279 21.1271 17.3829 21.017 17.3026 20.9357C17.2223 20.8545 17.1134 20.8086 16.9998 20.8083Z" fill="#3F3F3F"/>
<path d="M20.4296 20.8083C20.3159 20.8083 20.2069 20.8539 20.1264 20.935C20.046 21.016 20.0006 21.1261 20.0003 21.2409V23.1213V25.0862H20.8578V21.2481C20.8585 21.1912 20.8481 21.1346 20.8271 21.0817C20.8062 21.0289 20.7752 20.9809 20.7358 20.9401C20.6964 20.8994 20.6495 20.8668 20.5976 20.8443C20.5458 20.8219 20.4901 20.81 20.4337 20.8093L20.4296 20.8083Z" fill="#3F3F3F"/>
<path d="M18.7147 20.8083C18.6009 20.8083 18.4916 20.8539 18.4111 20.9352C18.3306 21.0165 18.2854 21.1269 18.2854 21.2419V25.0808H19.1429V21.2419C19.1429 21.1271 19.0978 21.017 19.0175 20.9357C18.9372 20.8545 18.8284 20.8086 18.7147 20.8083Z" fill="#3F3F3F"/>
<path d="M21.7163 10.3059H12.2832C11.9454 10.3055 11.6108 10.3722 11.2985 10.5024C10.9863 10.6325 10.7025 10.8236 10.4633 11.0645C10.2242 11.3054 10.0343 11.5915 9.90465 11.9065C9.775 12.2215 9.70806 12.5593 9.70764 12.9004C9.7071 13.2416 9.77314 13.5796 9.90197 13.8951C10.0308 14.2105 10.2199 14.4972 10.4585 14.7389C10.6971 14.9805 10.9805 15.1723 11.2925 15.3033C11.6045 15.4343 11.939 15.5019 12.2769 15.5023C12.9231 15.5032 13.5459 15.2585 14.0215 14.8169C14.4972 14.3752 14.7908 13.769 14.8441 13.1187C15.5304 13.3643 16.2529 13.4909 16.981 13.4931C17.7188 13.4898 18.4509 13.362 19.1471 13.1154C19.2012 13.8035 19.5237 14.4418 20.0437 14.8898C20.5637 15.3377 21.2386 15.5588 21.92 15.5044C22.6014 15.4498 23.2334 15.1242 23.677 14.599C24.1206 14.0739 24.3395 13.3923 24.2856 12.7042C24.2341 12.0514 23.9408 11.4422 23.4642 10.998C22.9876 10.5539 22.3627 10.3075 21.7142 10.308L21.7163 10.3059ZM12.2842 13.3371C12.1704 13.3371 12.0612 13.2914 11.9807 13.2101C11.9002 13.1289 11.855 13.0184 11.855 12.9035C11.855 12.7885 11.9002 12.6784 11.9807 12.5971C12.0612 12.5158 12.1704 12.4701 12.2842 12.4701C12.3981 12.4701 12.5073 12.5158 12.5878 12.5971C12.6683 12.6784 12.7135 12.7885 12.7135 12.9035C12.7129 13.0182 12.6675 13.1281 12.5871 13.2091C12.5067 13.2901 12.3978 13.3358 12.2842 13.3361V13.3371ZM21.7174 13.3371C21.6035 13.3371 21.4944 13.2914 21.4139 13.2101C21.3334 13.1289 21.2881 13.0184 21.2881 12.9035C21.2881 12.7885 21.3334 12.6784 21.4139 12.5971C21.4944 12.5158 21.6035 12.4701 21.7174 12.4701C21.8312 12.4701 21.9404 12.5158 22.0209 12.5971C22.1014 12.6784 22.1466 12.7885 22.1466 12.9035C22.1463 13.0184 22.101 13.1284 22.0206 13.2096C21.9402 13.2909 21.8311 13.3368 21.7174 13.3371Z" fill="#3F3F3F"/>
</svg>
