<svg width="35" height="36" viewBox="0 0 35 36" fill="none" xmlns="http://www.w3.org/2000/svg">
<path d="M17.0065 35.157C15.7156 35.1593 14.4467 34.8283 13.3262 34.1971L4.70122 29.3241C3.52277 28.6478 2.54598 27.6781 1.86895 26.5122C1.19192 25.3463 0.838617 24.0254 0.844462 22.6824V13.3214C0.838617 11.9784 1.19192 10.6577 1.86895 9.49187C2.54598 8.32601 3.52277 7.35604 4.70122 6.67975L13.3262 1.80694C14.4459 1.17829 15.7125 0.847519 17.0015 0.847519C18.2905 0.847519 19.5572 1.17829 20.6769 1.80694L29.3108 6.67975C30.4896 7.35613 31.4667 8.32634 32.1438 9.49259C32.8208 10.6588 33.174 11.98 33.1677 13.3233V22.6855C33.1732 24.0282 32.8197 25.3484 32.1427 26.5139C31.4657 27.6794 30.4889 28.6489 29.3108 29.325L20.686 34.1981C19.5658 34.8291 18.297 35.1598 17.0065 35.157Z" fill="#88F946"/>
<path d="M33.1687 18.2886V22.9404C33.1833 24.2592 32.8359 25.5594 32.1602 26.7149C31.4846 27.8704 30.5034 28.8422 29.3118 29.5362L20.687 34.3784C19.5743 35.0037 18.3024 35.3336 17.0065 35.3327C15.711 35.3334 14.4395 35.0036 13.3272 34.3784L4.70222 29.5362C3.51028 28.842 2.52897 27.8698 1.85328 26.714C1.17759 25.5581 0.830509 24.2577 0.845465 22.9385V18.2886H33.1687Z" fill="#7DDB40"/>
<path d="M17.0045 36C15.5711 36.0012 14.1623 35.6339 12.9174 34.9342L4.28651 30.0621C2.97695 29.3102 1.89149 28.2323 1.13907 26.9366C0.386643 25.6408 -0.00617327 24.173 7.33538e-05 22.6805V13.3195C-0.00617327 11.827 0.386643 10.3589 1.13907 9.0632C1.89149 7.76749 2.97695 6.68975 4.28651 5.9379L12.9154 1.06581C14.1594 0.367274 15.5669 0 16.9991 0C18.4312 0 19.8386 0.367274 21.0827 1.06581L29.7155 5.9379C31.025 6.68983 32.1105 7.76774 32.863 9.06344C33.6154 10.3591 34.0082 11.827 34.0021 13.3195V22.6805C34.0082 24.173 33.6154 25.6409 32.863 26.9366C32.1105 28.2323 31.025 29.3102 29.7155 30.0621L21.0867 34.9342C19.8434 35.6333 18.4363 36.0006 17.0045 36ZM17.0045 1.69599C15.8584 1.69552 14.732 1.98974 13.7369 2.54974L5.10802 7.41297C4.05884 8.01509 3.18935 8.87888 2.58715 9.91719C1.98495 10.9555 1.67127 12.1315 1.67778 13.3271V22.6884C1.67106 23.8841 1.98456 25.0603 2.58678 26.0986C3.189 27.137 4.0587 28.0006 5.10802 28.6026L13.7369 33.4747C14.7326 34.033 15.8587 34.3265 17.0045 34.3265C18.1504 34.3265 19.2765 34.033 20.2722 33.4747L28.9011 28.6026C29.9501 28.0004 30.8195 27.1367 31.4216 26.0984C32.0236 25.0601 32.337 23.884 32.3303 22.6884V13.3183C32.3355 12.1241 32.0213 10.9497 31.4194 9.91287C30.8174 8.87608 29.9489 8.01359 28.9011 7.41201L20.2722 2.54088C19.2771 1.98087 18.1507 1.68665 17.0045 1.68713V1.69599Z" fill="#3F3F3F"/>
<path d="M17.0045 33.1144C15.8022 33.1147 14.6206 32.8063 13.5763 32.2195L6.33217 28.1307C5.23336 27.4993 4.32258 26.5943 3.69143 25.5067C3.06028 24.4191 2.73092 23.1873 2.73643 21.9347V14.078C2.73102 12.8254 3.06041 11.5936 3.69155 10.5061C4.32269 9.41849 5.23343 8.51347 6.33217 7.88203L13.5754 3.79324C14.6196 3.20702 15.801 2.89876 17.0031 2.89876C18.2051 2.89876 19.3865 3.20702 20.4307 3.79324L27.677 7.88203C28.7762 8.51315 29.6873 9.41798 30.3188 10.5056C30.9503 11.5932 31.28 12.8252 31.2747 14.078V21.9347C31.28 23.1875 30.9503 24.4195 30.3188 25.5072C29.6873 26.5947 28.7762 27.4996 27.677 28.1307L20.4338 32.2145C19.3898 32.8032 18.2077 33.1134 17.0045 33.1144ZM17.0045 4.32231C16.0427 4.3218 15.0975 4.56843 14.2622 5.0378L7.01897 9.11964C6.13834 9.62504 5.40849 10.35 4.90307 11.2215C4.39765 12.0931 4.13443 13.0804 4.13997 14.084V21.9414C4.13461 22.9448 4.3979 23.9321 4.90331 24.8034C5.40873 25.6747 6.13848 26.3995 7.01897 26.9048L14.2622 30.9936C15.0976 31.4618 16.0423 31.7079 17.0035 31.7079C17.9648 31.7079 18.9095 31.4618 19.7449 30.9936L26.9881 26.9048C27.8685 26.3994 28.5982 25.6745 29.1036 24.8032C29.609 23.9318 29.8724 22.9448 29.8671 21.9414V14.077C29.8714 13.0746 29.6075 12.0889 29.1022 11.2187C28.5968 10.3485 27.8677 9.62445 26.9881 9.11964L19.7449 5.03085C18.9098 4.56097 17.9644 4.31431 17.0026 4.31536L17.0045 4.32231Z" fill="#3F3F3F"/>
<path d="M21.1576 9.65645C20.337 10.4415 19.3784 11.0735 18.3285 11.5214C7.44172 15.4992 12.0322 23.2499 12.1828 23.2754C12.5577 22.6344 13.0446 22.0635 13.6212 21.5893C18.8538 17.7037 19.9184 13.2301 19.9184 13.2301C19.0176 16.7 16.9655 19.7742 14.0878 21.965C13.06 22.704 12.3632 24.5248 12.0691 26.3435C12.0691 26.3435 12.7978 26.049 13.1118 25.9656C13.2229 25.1639 13.4987 24.3927 13.9223 23.6993C14.9318 23.8647 15.9647 23.8313 16.9611 23.6008C17.9574 23.3704 18.8974 22.9475 19.7265 22.3568C20.5556 21.766 21.2574 21.019 21.7912 20.1593C22.325 19.2995 22.6802 18.3442 22.8362 17.3483V17.3395C23.1978 14.6644 22.6044 11.9485 21.1576 9.65645Z" fill="#3F3F3F"/>
</svg>
