<svg width="76" height="78" viewBox="0 0 76 78" fill="none" xmlns="http://www.w3.org/2000/svg">
<path d="M74.4103 77.216L68.3256 67.755L76 64.3541C68.3246 60.9141 52.0155 57.6376 38.304 56.544V69.9847C52.1116 70.9324 65.6619 74.6701 74.4103 77.216Z" fill="#3F3F3F"/>
<path d="M1.61524 77.216L7.79811 67.755L-4.74453e-05 64.3541C7.79909 60.9141 24.3713 57.6376 38.304 56.544V69.9847C24.2736 70.9324 10.5047 74.6701 1.61524 77.216Z" fill="#3F3F3F"/>
<path d="M73.5679 26.5324V46.4423C73.5657 49.3196 72.7848 52.1443 71.3057 54.6262C69.8266 57.1081 67.7025 59.1576 65.1519 60.5639L46.3395 70.9261C43.8796 72.2603 41.1165 72.96 38.3077 72.96C35.4989 72.96 32.7358 72.2603 30.2758 70.9261L20.6111 65.6032L11.4561 60.5639C8.90443 59.1587 6.77952 57.1095 5.30024 54.6274C3.82095 52.1452 3.04076 49.3199 3.04004 46.4423L3.04004 26.5179C3.04153 23.6405 3.82204 20.8154 5.30125 18.3334C6.78046 15.8514 8.90494 13.802 11.4561 12.3963L30.2685 2.03413C32.7244 0.699839 35.4839 0 38.2892 0C41.0945 0 43.854 0.699839 46.3099 2.03413L54.7629 6.68801L65.1519 12.3963C67.7057 13.8027 69.832 15.8541 71.3115 18.3391C72.7909 20.824 73.5698 23.6524 73.5679 26.5324V26.5324Z" fill="#484848"/>
<path d="M73.5679 26.5309V46.4407C73.5657 49.318 72.7849 52.1427 71.3057 54.6246C69.8266 57.1065 67.7025 59.156 65.1519 60.5623L46.3395 70.9245C43.8796 72.2587 41.1165 72.9584 38.3077 72.9584C35.4989 72.9584 32.7358 72.2587 30.2759 70.9245L20.6111 65.6016L54.763 6.70825L65.1519 12.4165C67.7009 13.8228 69.8239 15.8713 71.3028 18.3517C72.7818 20.832 73.5636 23.655 73.5679 26.5309V26.5309Z" fill="#3F3F3F"/>
<path d="M34.1686 4.91211L18.2157 14.2199C15.8537 15.6354 13.8125 17.5134 12.2186 19.7375C10.6247 21.9615 9.51213 24.4842 8.94993 27.1489L7.16179 36.3549V44.8336C7.15178 45.8934 7.2558 46.9513 7.47213 47.9896L10.1987 44.1719L36.4 7.52992L38.6611 4.35947L34.1686 4.91211Z" fill="#565656"/>
<path d="M61.5839 14.9617L45.7715 6.23573C43.4834 4.98721 40.9101 4.33214 38.2938 4.33214C35.6775 4.33214 33.1043 4.98721 30.8161 6.23573L15.0185 14.9617C12.6388 16.2718 10.6571 18.1827 9.27773 20.4975C7.89839 22.8123 7.17129 25.4473 7.17139 28.1308V44.8556C7.17392 47.5366 7.90226 50.1686 9.28147 52.4806C10.6607 54.7926 12.6409 56.7013 15.0185 58.0101L30.8235 66.7361C33.1119 67.9879 35.6868 68.6449 38.3049 68.6449C40.923 68.6449 43.4979 67.9879 45.7862 66.7361L61.5839 58.0101C63.9635 56.6992 65.9454 54.7883 67.3258 52.4738C68.7063 50.1594 69.4354 47.5248 69.4384 44.8411V28.1162C69.4328 25.435 68.7024 22.8034 67.3221 20.4917C65.9418 18.18 63.9613 16.2714 61.5839 14.9617V14.9617ZM66.3794 44.8556C66.3798 47.0058 65.7972 49.1172 64.6919 50.9719C63.5866 52.8267 61.9984 54.3576 60.0913 55.4068L44.2937 64.1329C42.4619 65.1311 40.4024 65.6548 38.3086 65.6548C36.2147 65.6548 34.1552 65.1311 32.3235 64.1329L16.5258 55.4068C14.6206 54.3561 13.0344 52.8246 11.9305 50.9701C10.8266 49.1155 10.2448 47.0049 10.2452 44.8556V28.1308C10.2448 25.9814 10.8266 23.8709 11.9305 22.0163C13.0344 20.1618 14.6206 18.6303 16.5258 17.5795L32.3235 8.9117C34.1559 7.9154 36.2151 7.39252 38.3086 7.39192V7.39192C40.4025 7.38901 42.4626 7.91211 44.2937 8.9117L60.0913 17.6377C61.9954 18.6861 63.581 20.215 64.685 22.0671C65.7889 23.9191 66.3712 26.0272 66.372 28.1744L66.3794 44.8556Z" fill="#FABC43"/>
<path d="M55.8267 26.0969C55.6535 25.8816 51.1485 20.7564 43.9579 22.0915C37.5469 23.2544 34.3415 18.5168 34.2115 18.3015C34.0816 18.0861 33.865 18 33.6051 18C33.3452 18.0431 33.1719 18.1723 33.0853 18.3876L26.8476 34.323L21.0431 49.1386C20.9132 49.4832 21.0865 49.8277 21.433 49.9569C21.5196 50 21.6063 50 21.6496 50C21.9095 50 22.1694 49.8277 22.256 49.5693L27.6707 35.7873C29.1434 37.3378 32.6954 40.3096 38.1967 39.1467C44.6076 37.8116 48.6361 42.8937 48.7661 43.109C48.896 43.2813 49.1559 43.4105 49.3725 43.3674C49.5891 43.3244 49.8057 43.1952 49.8923 42.9367L55.9567 26.7429C56.0433 26.5276 56 26.2692 55.8267 26.0969ZM46.6435 33.5047C45.0841 32.9018 43.2215 32.5141 41.1423 32.6864L43.0482 27.8197C45.1707 27.5612 47.0334 27.9489 48.5928 28.5518L46.6435 33.5047ZM36.0742 27.3459L34.1682 32.3419C32.0457 31.4805 30.7028 30.0592 30.1397 29.3701L32.0457 24.5034C32.7821 25.2786 34.1249 26.5276 36.0742 27.3459ZM44.1311 23.3405L42.5717 27.2598C42.3984 27.3028 42.2685 27.3028 42.0952 27.3459C40.0593 27.7335 38.3266 27.5182 36.8972 27.0444L38.4566 22.9529C40.016 23.4697 41.922 23.7281 44.1311 23.3405ZM32.8254 37.6824L34.5581 33.1602C36.0742 33.677 37.8935 33.8923 40.0593 33.5047H40.1026L38.37 37.8546C38.1967 37.8977 38.0667 37.8977 37.8935 37.9408C35.9442 38.3284 34.2548 38.1561 32.8254 37.6824ZM49.0693 41.4724C48.3329 40.6972 47.0334 39.6205 45.3007 38.7591L47.0334 34.323C48.9393 35.1844 50.2822 36.3472 50.802 36.8641L49.0693 41.4724ZM53.0978 30.6622C52.4047 30.0162 51.1485 29.0256 49.4158 28.2503L50.9752 24.2019C52.8379 25.0633 54.094 26.183 54.5705 26.6568L53.0978 30.6622Z" fill="#FABC43"/>
</svg>
