<svg width="34" height="36" viewBox="0 0 34 36" fill="none" xmlns="http://www.w3.org/2000/svg">
<path d="M17.0055 35.0427C15.7177 35.046 14.4506 34.7168 13.3253 34.0864L4.70094 29.2293C3.53127 28.5702 2.55731 27.6091 1.87942 26.445C1.20153 25.2808 0.844195 23.9557 0.844284 22.6062V13.2737C0.844195 11.9243 1.20153 10.5992 1.87942 9.43501C2.55731 8.27085 3.53127 7.30962 4.70094 6.65051L13.3253 1.79359C14.4501 1.16646 15.7147 0.837494 17.0005 0.837494C18.2863 0.837494 19.551 1.16646 20.6757 1.79359L29.309 6.65051C30.4788 7.30954 31.4528 8.2707 32.1307 9.43489C32.8086 10.5991 33.1659 11.9243 33.1657 13.2737V22.6062C33.1647 23.9547 32.8069 25.2785 32.1291 26.4415C31.4512 27.6045 30.4778 28.5647 29.309 29.2233L20.6847 34.0804C19.5603 34.7127 18.2935 35.0441 17.0055 35.0427Z" fill="#9D93E5"/>
<path d="M33.1637 18.2309V23.0809C33.1721 24.4661 32.8207 25.8296 32.1442 27.0359C31.4677 28.2422 30.4896 29.2495 29.3071 29.9579L20.6827 35.0055C19.5649 35.6588 18.295 36.002 17.0025 36C15.7103 36.0018 14.4408 35.6587 13.3233 35.0055L4.69896 29.9579C3.51621 29.2495 2.53803 28.2421 1.8615 27.0355C1.18497 25.829 0.833607 24.4653 0.842306 23.0799V18.232L33.1637 18.2309Z" fill="#8C87CC"/>
<path d="M17.0035 35.8845C15.5735 35.8863 14.1668 35.5205 12.9166 34.8219L4.28625 29.9659C2.98692 29.2335 1.90494 28.1657 1.15158 26.8725C0.398229 25.5793 0.000731537 24.1074 0 22.6082V13.2757C0.000627777 11.7765 0.398067 10.3045 1.15143 9.01131C1.90479 7.71811 2.98685 6.65039 4.28625 5.918L12.9146 1.06206C14.1644 0.365434 15.5695 0 16.998 0C18.4265 0 19.8317 0.365434 21.0814 1.06206L29.7138 5.918C31.013 6.65055 32.095 7.71827 32.8483 9.01144C33.6016 10.3046 33.9992 11.7766 34 13.2757V22.6082C33.9992 24.1074 33.6016 25.5793 32.8483 26.8725C32.095 28.1657 31.013 29.2334 29.7138 29.9659L21.0854 34.8219C19.8367 35.5198 18.4318 35.8855 17.0035 35.8845ZM17.0035 1.69525C15.8601 1.69429 14.7354 1.98722 13.736 2.54624L5.10762 7.39312C4.06671 7.97963 3.20009 8.83507 2.59714 9.87125C1.9942 10.9074 1.67676 12.0868 1.67761 13.2877V22.6203C1.67655 23.8213 1.99391 25.0007 2.59687 26.0369C3.19984 27.0731 4.06657 27.9285 5.10762 28.5148L13.736 33.3709C14.7362 33.9279 15.8605 34.22 17.0035 34.22C18.1465 34.22 19.2708 33.9279 20.271 33.3709L28.8994 28.5148C29.9402 27.9283 30.8068 27.0729 31.4095 26.0367C32.0123 25.0005 32.3295 23.8212 32.3284 22.6203V13.2817C32.3279 12.0823 32.01 10.9047 31.4073 9.87002C30.8046 8.83539 29.9389 7.98118 28.8994 7.3952L20.271 2.54024C19.2717 1.98097 18.1469 1.68802 17.0035 1.68925V1.69525Z" fill="#3F3F3F"/>
<path d="M17.0035 33.0065C15.804 33.0077 14.6241 32.7006 13.5755 32.1144L6.33169 28.0392C5.24159 27.4244 4.33387 26.5281 3.70194 25.4429C3.07 24.3577 2.73668 23.1226 2.73622 21.8646V14.0374C2.73668 12.7794 3.07 11.5443 3.70194 10.4591C4.33387 9.37385 5.24159 8.47762 6.33169 7.86273L13.5745 3.7876C14.6235 3.203 15.8029 2.8963 17.002 2.8963C18.201 2.8963 19.3805 3.203 20.4295 3.7876L27.6753 7.86273C28.7657 8.47745 29.6737 9.37349 30.306 10.4587C30.9383 11.5439 31.272 12.7792 31.2727 14.0374V21.8646C31.272 23.1227 30.9383 24.3579 30.306 25.4431C29.6737 26.5284 28.7657 27.4245 27.6753 28.0392L20.4325 32.1094C19.384 32.6975 18.2037 33.0064 17.0035 33.0065ZM17.0035 4.30637C16.044 4.30529 15.1001 4.55081 14.2613 5.0198L7.01849 9.0871C6.14477 9.57951 5.41739 10.2977 4.91135 11.1675C4.4053 12.0373 4.13892 13.0272 4.13971 14.0353V21.8627C4.1391 22.8705 4.40556 23.8603 4.91159 24.73C5.41763 25.5996 6.14492 26.3175 7.01849 26.8099L14.2613 30.8851C15.1004 31.3521 16.0436 31.5972 17.0025 31.5972C17.9613 31.5972 18.9045 31.3521 19.7437 30.8851L26.9865 26.8099C27.8601 26.3175 28.5874 25.5996 29.0934 24.73C29.5994 23.8603 29.8659 22.8705 29.8653 21.8627V14.0252C29.8646 13.0186 29.5976 12.0303 29.0916 11.162C28.5857 10.2937 27.859 9.57677 26.9865 9.08502L19.7437 5.00976C18.905 4.54044 17.9611 4.29489 17.0015 4.29633L17.0035 4.30637Z" fill="#3F3F3F"/>
<path d="M21.6376 21.9801L21.0296 21.5958C20.9765 21.5622 20.9174 21.5397 20.8556 21.5296C20.7938 21.5194 20.7306 21.5218 20.6697 21.5365C20.5251 21.5727 20.3749 21.5799 20.2276 21.5576C20.0802 21.5353 19.9387 21.484 19.811 21.4067C19.6834 21.3294 19.5721 21.2275 19.4836 21.1068C19.3951 20.9862 19.331 20.8492 19.2951 20.7036C19.2592 20.5581 19.2521 20.4068 19.2742 20.2585C19.2963 20.1102 19.3472 19.9677 19.4241 19.8392C19.5009 19.7107 19.6021 19.5987 19.7219 19.5096C19.8418 19.4205 19.9779 19.356 20.1225 19.3198C20.267 19.2836 20.4173 19.2765 20.5646 19.2988C20.712 19.321 20.8535 19.3723 20.9811 19.4496C21.1088 19.527 21.22 19.6288 21.3086 19.7495C21.3971 19.8701 21.4612 20.0071 21.4971 20.1527C21.4986 20.1649 21.5013 20.1771 21.5051 20.1888C21.5183 20.2506 21.5437 20.3092 21.5798 20.3609C21.616 20.4126 21.6621 20.4564 21.7154 20.4899L22.3224 20.8742C22.3745 20.9071 22.4326 20.9295 22.4932 20.9399C22.5539 20.9502 22.616 20.9484 22.6759 20.9347C22.7359 20.9209 22.7926 20.8953 22.8428 20.8594C22.8929 20.8236 22.9356 20.7782 22.9683 20.7257L24.962 17.5315C24.9947 17.4793 25.017 17.4211 25.0274 17.3602C25.0379 17.2993 25.0363 17.2369 25.0228 17.1766C25.0093 17.1163 24.9841 17.0593 24.9487 17.0088C24.9133 16.9583 24.8683 16.9153 24.8164 16.8823L21.3386 14.6806L20.6079 14.217L20.8432 13.8397C20.8902 13.7649 20.9514 13.7003 21.0235 13.6496C21.0956 13.599 21.1769 13.5633 21.2628 13.5447C21.4709 13.5017 21.6681 13.4168 21.8427 13.295C22.0173 13.1732 22.1655 13.0172 22.2786 12.8362V12.8291C22.5061 12.4724 22.5842 12.0395 22.4959 11.6249C22.4075 11.2104 22.1599 10.8478 21.8071 10.6164C21.4527 10.3874 21.0227 10.3087 20.6109 10.3976C20.1991 10.4866 19.839 10.7359 19.6091 11.0911L19.5902 11.1222V11.1292C19.4763 11.3098 19.3999 11.5117 19.3656 11.7228C19.3313 11.9339 19.3399 12.1498 19.3908 12.3575C19.4114 12.4437 19.4147 12.5332 19.4005 12.6208C19.3863 12.7083 19.3549 12.7922 19.3081 12.8673L19.0718 13.2426L18.3412 12.779L14.8683 10.5713C14.7633 10.5045 14.6364 10.4825 14.5152 10.51C14.3941 10.5374 14.2888 10.6122 14.2224 10.7178L12.2198 13.9059C12.1535 14.0116 12.1316 14.1394 12.1589 14.2613C12.1862 14.3833 12.2604 14.4893 12.3653 14.5562L12.9714 14.9415C13.0242 14.9752 13.0831 14.9979 13.1448 15.0082C13.2064 15.0185 13.2695 15.0163 13.3302 15.0017C13.4749 14.9664 13.625 14.9601 13.7721 14.9832C13.9191 15.0063 14.0603 15.0583 14.1873 15.1363C14.3144 15.2143 14.425 15.3168 14.5128 15.4378C14.6005 15.5588 14.6638 15.6961 14.6989 15.8417C14.7339 15.9873 14.7402 16.1384 14.7173 16.2865C14.6943 16.4345 14.6426 16.5766 14.5652 16.7046C14.4877 16.8325 14.3859 16.9438 14.2657 17.0322C14.1455 17.1205 14.0092 17.1842 13.8645 17.2195C13.7199 17.2548 13.5697 17.2611 13.4227 17.238C13.2756 17.2149 13.1345 17.1628 13.0074 17.0848C12.8803 17.0069 12.7697 16.9045 12.682 16.7834C12.5942 16.6624 12.531 16.5252 12.4959 16.3796C12.4959 16.3665 12.4899 16.3535 12.487 16.3404C12.4737 16.2786 12.4482 16.2202 12.4121 16.1684C12.376 16.1167 12.3299 16.0728 12.2766 16.0393L11.6706 15.653C11.5659 15.5863 11.4391 15.5641 11.3182 15.5914C11.1973 15.6186 11.092 15.6931 11.0256 15.7985L8.99014 19.0589C8.92383 19.1643 8.9018 19.2919 8.92891 19.4137C8.95601 19.5354 9.03004 19.6413 9.1347 19.7081L13.1698 22.2741C13.2746 22.3409 13.4015 22.3631 13.5226 22.3358C13.6437 22.3086 13.7491 22.234 13.8157 22.1286L14.026 21.7954C14.0594 21.7421 14.0818 21.6826 14.0919 21.6203C14.102 21.5581 14.0996 21.4944 14.0848 21.4332C14.0485 21.2857 14.0421 21.1323 14.0661 20.9823C14.09 20.8323 14.1439 20.6887 14.2244 20.5601V20.5541C14.3035 20.4278 14.4065 20.3184 14.5277 20.2321C14.6488 20.1459 14.7856 20.0846 14.9303 20.0516C15.075 20.0186 15.2247 20.0146 15.3709 20.0399C15.5171 20.0651 15.6569 20.1192 15.7824 20.1989C15.9079 20.2785 16.0166 20.3823 16.1022 20.5042C16.1879 20.6261 16.2488 20.7639 16.2816 20.9095C16.3143 21.0552 16.3183 21.2059 16.2932 21.3531C16.2681 21.5003 16.2144 21.641 16.1352 21.7673V21.7734C16.0548 21.9015 15.9495 22.0119 15.8257 22.0981C15.7018 22.1843 15.562 22.2445 15.4146 22.2751C15.3531 22.2884 15.295 22.314 15.2436 22.3504C15.1922 22.3867 15.1487 22.4332 15.1155 22.4869L14.9052 22.825C14.8725 22.8774 14.8504 22.9357 14.8401 22.9967C14.8298 23.0577 14.8316 23.1202 14.8453 23.1805C14.859 23.2408 14.8843 23.2977 14.9199 23.3482C14.9555 23.3986 15.0006 23.4414 15.0527 23.4743L19.0918 26.0342C19.1437 26.0672 19.2016 26.0895 19.2622 26.1C19.3227 26.1104 19.3847 26.1087 19.4446 26.095C19.5045 26.0813 19.5611 26.0559 19.6112 26.0202C19.6614 25.9844 19.704 25.9391 19.7367 25.8868L21.7811 22.6314C21.8143 22.5792 21.837 22.5208 21.8477 22.4598C21.8585 22.3988 21.8571 22.3362 21.8438 22.2757C21.8305 22.2152 21.8054 22.1579 21.77 22.1072C21.7346 22.0565 21.6896 22.0133 21.6376 21.9801Z" fill="#3F3F3F"/>
</svg>
