<svg width="34" height="36" viewBox="0 0 34 36" fill="none" xmlns="http://www.w3.org/2000/svg">
<path d="M17.0055 35.0423C15.7146 35.0446 14.4457 34.7147 13.3253 34.0856L4.70098 29.2284C3.5226 28.5543 2.54584 27.5878 1.86885 26.4257C1.19186 25.2637 0.838526 23.947 0.844371 22.6084V13.2779C0.839132 11.9395 1.19272 10.6231 1.86964 9.46114C2.54657 8.2992 3.52301 7.3325 4.70098 6.65796L13.3253 1.80105C14.4449 1.17445 15.7116 0.844757 17.0005 0.844757C18.2894 0.844757 19.556 1.17445 20.6757 1.80105L29.309 6.65796C30.4877 7.33213 31.4647 8.29918 32.1418 9.46162C32.8188 10.6241 33.1719 11.9409 33.1656 13.2798V22.6115C33.1711 23.9498 32.8176 25.2657 32.1406 26.4274C31.4637 27.5891 30.4871 28.5554 29.309 29.2294L20.6847 34.0865C19.5646 34.7155 18.2959 35.0451 17.0055 35.0423Z" fill="#54B6E0"/>
<path d="M33.1666 18.2289V23.0791C33.1811 24.4542 32.8337 25.8096 32.1581 27.0144C31.4825 28.2191 30.5015 29.2326 29.31 29.9563L20.6856 35.005C19.5731 35.657 18.3013 36.0009 17.0055 36C15.71 36.0008 14.4385 35.6569 13.3263 35.005L4.70197 29.9563C3.51017 29.2324 2.52894 28.2188 1.8533 27.0136C1.17766 25.8085 0.830479 24.4526 0.845337 23.0772V18.2289H33.1666Z" fill="#4EA8CE"/>
<path d="M23.383 9.13683L16.2429 8.15379L11.9816 18.1105L14.8424 18.5017L11.2141 26.9882L12.0713 27.1066L21.7642 17.8963L17.5696 17.3181L23.383 9.13683Z" fill="#3F3F3F"/>
<path d="M17.0035 35.8825C15.5702 35.8837 14.1614 35.5176 12.9166 34.8202L4.28633 29.964C2.97685 29.2146 1.89137 28.1402 1.139 26.8487C0.386618 25.5572 -0.00617288 24.0942 7.33491e-05 22.6065V13.276C-0.00617288 11.7884 0.386618 10.3251 1.139 9.03363C1.89137 7.74214 2.97685 6.66792 4.28633 5.91853L12.9146 1.06233C14.1586 0.366075 15.5659 0 16.998 0C18.4301 0 19.8374 0.366075 21.0814 1.06233L29.7137 5.91853C31.0231 6.668 32.1085 7.7424 32.8609 9.03387C33.6132 10.3253 34.0061 11.7884 33.9999 13.276V22.6065C34.0061 24.0941 33.6132 25.5572 32.8609 26.8487C32.1085 28.1401 31.0231 29.2145 29.7137 29.964L21.0854 34.8202C19.8422 35.517 18.4352 35.8831 17.0035 35.8825ZM17.0035 1.69046C15.8574 1.68999 14.731 1.98325 13.736 2.54142L5.10767 7.38878C4.05855 7.98894 3.18911 8.84991 2.58695 9.88483C1.98479 10.9197 1.67119 12.0919 1.6777 13.2837V22.6144C1.67109 23.8062 1.98466 24.9785 2.58683 26.0135C3.189 27.0484 4.05848 27.9092 5.10767 28.5093L13.736 33.3655C14.7316 33.9219 15.8577 34.2145 17.0035 34.2145C18.1493 34.2145 19.2753 33.9219 20.271 33.3655L28.8993 28.5093C29.9483 27.9091 30.8176 27.0482 31.4196 26.0132C32.0216 24.9783 32.335 23.8061 32.3283 22.6144V13.2748C32.3335 12.0845 32.0194 10.9139 31.4175 9.88053C30.8155 8.84712 29.9471 7.98745 28.8993 7.38783L20.271 2.53259C19.276 1.97441 18.1496 1.68115 17.0035 1.68162V1.69046Z" fill="#3F3F3F"/>
<path d="M17.0035 33.0064C15.8012 33.0067 14.6196 32.6993 13.5755 32.1144L6.33173 28.0389C5.23292 27.4097 4.32222 26.5078 3.6911 25.4237C3.05997 24.3397 2.73067 23.1117 2.73628 21.8632V14.0321C2.73077 12.7836 3.06011 11.5556 3.69122 10.4716C4.32233 9.38752 5.23299 8.48563 6.33173 7.85633L13.5745 3.78088C14.6187 3.19657 15.8 2.88931 17.002 2.88931C18.204 2.88931 19.3853 3.19657 20.4295 3.78088L27.6752 7.85633C28.7743 8.48546 29.6852 9.38728 30.3167 10.4713C30.9482 11.5553 31.2779 12.7834 31.2727 14.0321V21.8632C31.2779 23.1118 30.9482 24.3397 30.3167 25.4237C29.6852 26.5077 28.7743 27.4098 27.6752 28.0389L20.4325 32.1094C19.3885 32.6962 18.2066 33.0054 17.0035 33.0064ZM17.0035 4.30822C16.0418 4.30772 15.0966 4.55354 14.2613 5.02138L7.01855 9.0899C6.13804 9.59372 5.40835 10.3163 4.90297 11.1849C4.39758 12.0536 4.13436 13.0378 4.13979 14.038V21.8699C4.13453 22.87 4.39784 23.8538 4.90321 24.7222C5.40858 25.5907 6.13819 26.3133 7.01855 26.8171L14.2613 30.8925C15.0966 31.3593 16.0413 31.6047 17.0025 31.6047C17.9637 31.6047 18.9084 31.3593 19.7437 30.8925L26.9864 26.8171C27.8668 26.3133 28.5964 25.5907 29.1018 24.7222C29.6071 23.8538 29.8704 22.87 29.8652 21.8699V14.0311C29.8694 13.032 29.6056 12.0494 29.1003 11.1821C28.595 10.3147 27.8659 9.59314 26.9864 9.0899L19.7437 5.01445C18.9087 4.54606 17.9633 4.3002 17.0015 4.30129L17.0035 4.30822Z" fill="#3F3F3F"/>
</svg>
