<svg width="54" height="58" viewBox="0 0 54 58" fill="none" xmlns="http://www.w3.org/2000/svg">
<g clip-path="url(#clip0_515_3271)">
<path d="M27.1219 56.4224C25.0761 56.4224 23.0624 55.8965 21.2731 54.8768L7.57476 47.0272C5.71496 45.9626 4.16941 44.4107 3.09201 42.5252C2.01461 40.6462 1.45026 38.5042 1.45026 36.3237V21.2402C1.45026 19.0597 2.01461 16.9177 3.09201 15.0387C4.16941 13.1597 5.71496 11.6013 7.57476 10.5367L21.2731 2.68708C23.0624 1.67381 25.0697 1.14153 27.109 1.14153C29.1484 1.14153 31.1621 1.67381 32.9449 2.68708L46.6625 10.5367C48.5223 11.6013 50.0679 13.1532 51.1453 15.0387C52.2227 16.9177 52.787 19.0597 52.787 21.2466V36.3302C52.787 38.5106 52.2163 40.6462 51.1389 42.5316C50.0615 44.4107 48.5159 45.9626 46.6561 47.0272L32.9578 54.8768C31.1685 55.9029 29.1612 56.4352 27.109 56.4352L27.1219 56.4224Z" fill="#D6B69F"/>
<path d="M52.4087 28.9615V36.4648C52.4215 38.6068 51.87 40.7167 50.8054 42.5829C49.7408 44.4491 48.2017 46.0075 46.3419 47.0977L32.7782 54.9025C31.021 55.9157 29.0266 56.4416 26.9936 56.4416C24.9607 56.4416 22.9662 55.9157 21.209 54.9025L7.64531 47.0977C5.78551 46.0011 4.24637 44.4427 3.1818 42.5765C2.11723 40.7103 1.5657 38.6004 1.57853 36.4584V28.9615H52.4087V28.9615Z" fill="#C4A895"/>
<path d="M26.9999 58C24.7297 58 22.4979 57.41 20.5163 56.2813L6.80508 48.4317C4.74007 47.2452 3.02136 45.5201 1.82852 43.4295C0.629276 41.3388 0.000793457 38.9595 0.000793457 36.5354V21.4582C0.000793457 19.0341 0.629276 16.6548 1.82852 14.5641C3.02136 12.4735 4.74007 10.7483 6.80508 9.56192L20.5099 1.71871C22.4979 0.590004 24.7297 0 26.9999 0C29.2701 0 31.5019 0.590004 33.49 1.71871L47.2076 9.56833C49.2726 10.7548 50.9849 12.4799 52.1841 14.5705C53.377 16.6612 54.0119 19.0405 54.0119 21.4646V36.5418C54.0119 38.9659 53.3834 41.3452 52.1841 43.4359C50.9913 45.5265 49.2726 47.2517 47.2076 48.4381L33.5028 56.2877C31.5147 57.4164 29.283 58.0064 27.0127 58.0064L26.9999 58ZM26.9999 2.73839C25.185 2.73839 23.3957 3.21296 21.8117 4.1172L8.10053 11.9476C6.44595 12.8967 5.07355 14.2755 4.11158 15.9558C3.15603 17.6296 2.6494 19.5343 2.6494 21.4774V36.5546C2.6494 38.4978 3.14962 40.4025 4.11158 42.0763C5.06714 43.7501 6.44595 45.1353 8.10053 46.0845L21.8053 53.9341C23.3958 54.8319 25.1786 55.3065 26.9935 55.3065C28.8084 55.3065 30.5977 54.8319 32.1817 53.9341L45.8865 46.0845C47.541 45.1353 48.9134 43.7565 49.8754 42.0763C50.831 40.4025 51.3376 38.4978 51.3376 36.5546V21.4646C51.3376 19.5279 50.831 17.6232 49.8754 15.9494C48.9199 14.2755 47.541 12.8967 45.8929 11.9476L32.1881 4.09797C30.5977 3.19372 28.8148 2.71915 26.9999 2.72556V2.73839V2.73839Z" fill="#404040"/>
<path d="M27 53.3505C25.0953 53.3505 23.2227 52.8567 21.5553 51.9076L10.0502 45.3213C8.31868 44.3273 6.87573 42.8779 5.87529 41.1272C4.87485 39.3764 4.34256 37.3755 4.34256 35.3426V22.6895C4.34256 20.6566 4.87485 18.6621 5.87529 16.9049C6.88214 15.1477 8.31868 13.7048 10.0502 12.7108L21.5553 6.12451C23.2227 5.18179 25.0953 4.68156 27 4.68156C28.9047 4.68156 30.7773 5.17537 32.4447 6.12451L43.9562 12.7108C45.6878 13.7048 47.1307 15.1541 48.1376 16.9049C49.1444 18.6621 49.6703 20.6566 49.6703 22.6895V35.3426C49.6703 37.3755 49.138 39.37 48.1376 41.1272C47.1307 42.8843 45.6878 44.3273 43.9562 45.3213L32.4511 51.9012C30.7837 52.8503 28.9111 53.3505 27 53.3505V53.3505ZM27 6.97104C25.4737 6.97104 23.973 7.36865 22.6455 8.12539L11.1404 14.6988C9.75521 15.494 8.59444 16.6548 7.7928 18.0593C6.99117 19.4637 6.5679 21.067 6.5679 22.6959V35.3554C6.5679 36.9843 6.99117 38.5876 7.7928 39.992C8.59444 41.3965 9.75521 42.5573 11.1404 43.3525L22.6455 49.9388C23.9794 50.6955 25.4801 51.0931 27 51.0931C28.5199 51.0931 30.0206 50.6955 31.3545 49.9388L42.8596 43.3525C44.2448 42.5573 45.4056 41.3965 46.2072 39.992C47.0089 38.5876 47.4321 36.9843 47.4321 35.3554V22.6895C47.4321 21.0606 47.0089 19.4637 46.2008 18.0593C45.3992 16.6548 44.2448 15.494 42.8532 14.6988L31.3481 8.11257C30.0142 7.35582 28.5135 6.95821 26.9936 6.95821L27 6.97104Z" fill="#404040"/>
<path d="M33.2143 17.9502C31.9573 17.9502 30.7517 18.4505 29.8602 19.3355C28.9688 20.2269 28.475 21.4326 28.475 22.6895V23.3693H25.7687V22.6895C25.7687 20.9965 24.8644 19.4317 23.3958 18.5851C21.9272 17.7386 20.1252 17.7386 18.6566 18.5851C17.188 19.4317 16.2837 20.9965 16.2837 22.6895V34.8808C16.2837 36.5739 17.188 38.1387 18.6566 38.9852C20.1252 39.8317 21.9272 39.8317 23.3958 38.9852C24.8644 38.1387 25.7687 36.5739 25.7687 34.8808V30.1415C25.7687 29.6605 26.0252 29.2116 26.4485 28.9679C26.8717 28.7242 27.3848 28.7242 27.8016 28.9679C28.2185 29.2116 28.4814 29.6541 28.4814 30.1415V34.8808C28.4814 36.5739 29.3857 38.1387 30.8543 38.9852C32.3229 39.8317 34.1249 39.8317 35.5935 38.9852C37.0621 38.1387 37.9664 36.5739 37.9664 34.8808V22.6895C37.9664 21.4326 37.4662 20.2269 36.5812 19.3355C35.6897 18.444 34.4841 17.9502 33.2271 17.9502H33.2143ZM21.023 38.2669C20.1252 38.2669 19.2658 37.9078 18.6309 37.2729C17.996 36.638 17.6369 35.7786 17.6369 34.8808C17.6369 33.983 17.996 33.1236 18.6309 32.4887C19.2658 31.8538 20.1252 31.4947 21.023 31.4947C21.9208 31.4947 22.7802 31.8538 23.4151 32.4887C24.05 33.1236 24.4091 33.983 24.4091 34.8808C24.4091 35.7786 24.05 36.638 23.4151 37.2729C22.7802 37.9078 21.9208 38.2669 21.023 38.2669ZM33.2143 38.2669C32.3165 38.2669 31.4571 37.9078 30.8222 37.2729C30.1873 36.638 29.8282 35.7786 29.8282 34.8808C29.8282 33.983 30.1873 33.1236 30.8222 32.4887C31.4571 31.8538 32.3165 31.4947 33.2143 31.4947C34.1121 31.4947 34.9715 31.8538 35.6064 32.4887C36.2413 33.1236 36.6004 33.983 36.6004 34.8808C36.6004 35.7786 36.2413 36.638 35.6064 37.2729C34.9715 37.9078 34.1121 38.2669 33.2143 38.2669Z" fill="#404040"/>
</g>
<defs>
<clipPath id="clip0_515_3271">
<rect width="54" height="58" fill="white"/>
</clipPath>
</defs>
</svg>
