<svg width="54" height="58" viewBox="0 0 54 58" fill="none" xmlns="http://www.w3.org/2000/svg">
<g clip-path="url(#clip0_515_3279)">
<path d="M27.6093 56.4544C25.5635 56.4544 23.5498 55.9286 21.7605 54.9089L8.06215 47.0593C6.20236 45.9947 4.6568 44.4427 3.5794 42.5573C2.502 40.6782 1.93765 38.5363 1.93765 36.3558V21.2722C1.93765 19.0918 2.502 16.9498 3.5794 15.0708C4.6568 13.1917 6.20236 11.6334 8.06215 10.5688L21.7605 2.71915C23.5498 1.70589 25.5571 1.1736 27.5964 1.1736C29.6358 1.1736 31.6495 1.70589 33.4323 2.71915L47.1499 10.5688C49.0097 11.6334 50.5553 13.1853 51.6327 15.0708C52.7101 16.9498 53.2744 19.0918 53.2744 21.2786V36.3622C53.2744 38.5427 52.7037 40.6782 51.6263 42.5637C50.5489 44.4427 49.0033 45.9947 47.1435 47.0593L33.4452 54.9089C31.6559 55.935 29.6486 56.4673 27.5964 56.4673L27.6093 56.4544Z" fill="#A9D19E"/>
<path d="M52.4087 28.9615V36.4648C52.4215 38.6068 51.87 40.7167 50.8054 42.5829C49.7408 44.4491 48.2017 46.0075 46.3419 47.0977L32.7782 54.9025C31.021 55.9157 29.0266 56.4416 26.9936 56.4416C24.9607 56.4416 22.9662 55.9157 21.209 54.9025L7.64531 47.0977C5.78551 46.0011 4.24637 44.4427 3.1818 42.5765C2.11723 40.7103 1.5657 38.6004 1.57853 36.4584V28.9615H52.4087V28.9615Z" fill="#9DBD91"/>
<path d="M26.9999 58C24.7297 58 22.4979 57.41 20.5163 56.2813L6.80508 48.4317C4.74007 47.2452 3.02136 45.5201 1.82852 43.4295C0.629276 41.3388 0.000793457 38.9595 0.000793457 36.5354V21.4582C0.000793457 19.0341 0.629276 16.6548 1.82852 14.5641C3.02136 12.4735 4.74007 10.7483 6.80508 9.56192L20.5099 1.71871C22.4979 0.590004 24.7297 0 26.9999 0C29.2701 0 31.5019 0.590004 33.49 1.71871L47.2076 9.56833C49.2726 10.7548 50.9849 12.4799 52.1841 14.5705C53.377 16.6612 54.0119 19.0405 54.0119 21.4646V36.5418C54.0119 38.9659 53.3834 41.3452 52.1841 43.4359C50.9913 45.5265 49.2726 47.2517 47.2076 48.4381L33.5028 56.2877C31.5147 57.4164 29.283 58.0064 27.0127 58.0064L26.9999 58ZM26.9999 2.73839C25.185 2.73839 23.3957 3.21296 21.8117 4.1172L8.10053 11.9476C6.44595 12.8967 5.07355 14.2755 4.11158 15.9558C3.15603 17.6296 2.6494 19.5343 2.6494 21.4774V36.5546C2.6494 38.4978 3.14962 40.4025 4.11158 42.0763C5.06714 43.7501 6.44595 45.1353 8.10053 46.0845L21.8053 53.9341C23.3958 54.8319 25.1786 55.3065 26.9935 55.3065C28.8084 55.3065 30.5977 54.8319 32.1817 53.9341L45.8865 46.0845C47.541 45.1353 48.9134 43.7565 49.8754 42.0763C50.831 40.4025 51.3376 38.4978 51.3376 36.5546V21.4646C51.3376 19.5279 50.831 17.6232 49.8754 15.9494C48.9199 14.2755 47.541 12.8967 45.8929 11.9476L32.1881 4.09797C30.5977 3.19372 28.8148 2.71915 26.9999 2.72556V2.73839V2.73839Z" fill="#404040"/>
<path d="M27 53.3505C25.0953 53.3505 23.2227 52.8567 21.5553 51.9076L10.0502 45.3213C8.31868 44.3273 6.87573 42.8779 5.87529 41.1272C4.87485 39.3764 4.34256 37.3755 4.34256 35.3426V22.6895C4.34256 20.6566 4.87485 18.6621 5.87529 16.9049C6.88214 15.1477 8.31868 13.7048 10.0502 12.7108L21.5553 6.12451C23.2227 5.18179 25.0953 4.68156 27 4.68156C28.9047 4.68156 30.7773 5.17537 32.4447 6.12451L43.9562 12.7108C45.6878 13.7048 47.1307 15.1541 48.1376 16.9049C49.1444 18.6621 49.6703 20.6566 49.6703 22.6895V35.3426C49.6703 37.3755 49.138 39.37 48.1376 41.1272C47.1307 42.8843 45.6878 44.3273 43.9562 45.3213L32.4511 51.9012C30.7837 52.8503 28.9111 53.3505 27 53.3505V53.3505ZM27 6.97104C25.4737 6.97104 23.973 7.36865 22.6455 8.12539L11.1404 14.6988C9.75521 15.494 8.59444 16.6548 7.7928 18.0593C6.99117 19.4637 6.5679 21.067 6.5679 22.6959V35.3554C6.5679 36.9843 6.99117 38.5876 7.7928 39.992C8.59444 41.3965 9.75521 42.5573 11.1404 43.3525L22.6455 49.9388C23.9794 50.6955 25.4801 51.0931 27 51.0931C28.5199 51.0931 30.0206 50.6955 31.3545 49.9388L42.8596 43.3525C44.2448 42.5573 45.4056 41.3965 46.2072 39.992C47.0089 38.5876 47.4321 36.9843 47.4321 35.3554V22.6895C47.4321 21.0606 47.0089 19.4637 46.2008 18.0593C45.3992 16.6548 44.2448 15.494 42.8532 14.6988L31.3481 8.11257C30.0142 7.35582 28.5135 6.95821 26.9936 6.95821L27 6.97104Z" fill="#404040"/>
<path d="M30.3092 31.0971L32.1561 24.2992L25.3582 26.1462L30.3092 31.0907V31.0971ZM23.1201 33.3417L29.918 31.4947L24.9735 26.5502L23.1265 33.3481L23.1201 33.3417ZM27.6092 16.4624C20.7985 16.4624 15.2576 22.0033 15.2576 28.814C15.2576 35.6247 20.7985 41.1656 27.6092 41.1656C34.4199 41.1656 39.9609 35.6247 39.9609 28.814C39.9609 22.0033 34.4199 16.4624 27.6092 16.4624V16.4624ZM27.6092 38.9724C22.0106 38.9724 17.4509 34.4191 17.4509 28.814C17.4509 23.209 22.0042 18.6557 27.6092 18.6557C33.2143 18.6557 37.7676 23.209 37.7676 28.814C37.7676 34.4191 33.2143 38.9724 27.6092 38.9724V38.9724Z" fill="#404040"/>
</g>
<defs>
<clipPath id="clip0_515_3279">
<rect width="54" height="58" fill="white"/>
</clipPath>
</defs>
</svg>
