<svg width="54" height="58" viewBox="0 0 54 58" fill="none" xmlns="http://www.w3.org/2000/svg">
<g clip-path="url(#clip0_515_3263)">
<path d="M27.0095 56.4609C24.9613 56.4609 22.951 55.935 21.162 54.9153L7.46318 47.0913C5.60464 46.0268 4.05586 44.4812 2.98119 42.6022C1.90653 40.7296 1.33759 38.594 1.33759 36.42V21.3813C1.33759 19.2072 1.90653 17.0717 2.98119 15.199C4.05586 13.3264 5.60464 11.7744 7.46318 10.7099L21.1683 2.8859C22.9573 1.87263 24.9613 1.34676 27.0031 1.34676C29.045 1.34676 31.0553 1.87904 32.838 2.8859L46.5494 10.7099C48.408 11.7744 49.9568 13.32 51.0314 15.199C52.1061 17.0717 52.675 19.2072 52.675 21.3813V36.42C52.675 38.594 52.1061 40.7231 51.0314 42.6022C49.9568 44.4748 48.408 46.0204 46.5558 47.0849L32.8569 54.9089C31.0742 55.9286 29.0577 56.4609 27.0158 56.4609H27.0095Z" fill="#D9DE6C"/>
<path d="M52.6687 29.372V37.1831C52.6814 39.4149 52.1251 41.6081 51.0504 43.5577C49.9757 45.5009 48.4206 47.1234 46.5431 48.2649L32.8443 56.3967C31.0679 57.4485 29.0513 58 26.9968 58C24.9423 58 22.9257 57.4485 21.1494 56.3967L7.45055 48.2649C5.57304 47.1234 4.01794 45.5009 2.94327 43.5577C1.8686 41.6146 1.31231 39.4149 1.32495 37.1831V29.372H52.6687V29.372Z" fill="#C6D668"/>
<path d="M27.0095 57.814C24.7401 57.814 22.5023 57.2304 20.5173 56.1017L6.81214 48.2778C4.75131 47.0977 3.03185 45.379 1.83707 43.2948C0.635971 41.2105 0.0038147 38.8377 0.0038147 36.4264V21.3877C0.0038147 18.9699 0.635971 16.6035 1.83075 14.5192C3.02552 12.435 4.74499 10.7163 6.80582 9.53627L20.511 1.7123C22.4959 0.590004 24.7275 0 26.9969 0C29.2663 0 31.4979 0.590004 33.4828 1.7123L47.1943 9.53627C49.2551 10.7163 50.9746 12.435 52.1694 14.5192C53.3642 16.6035 53.9963 18.9763 53.9963 21.3877V36.4264C53.9963 38.8441 53.3642 41.2105 52.1694 43.2948C50.9746 45.379 49.2551 47.0977 47.1943 48.2778L33.4892 56.1017C31.5042 57.224 29.2727 57.814 27.0095 57.814V57.814ZM27.0095 2.72556C25.1953 2.72556 23.4063 3.19372 21.8195 4.09797L8.11438 11.9091C6.46446 12.8518 5.08635 14.2306 4.12548 15.9045C3.17092 17.5719 2.66519 19.4766 2.66519 21.4069V36.4456C2.66519 38.3824 3.1646 40.2806 4.12548 41.948C5.08003 43.6154 6.45813 44.9942 8.11438 45.9434L21.8195 53.7674C23.4063 54.6652 25.1953 55.1333 27.0095 55.1333C28.8238 55.1333 30.6128 54.6652 32.1996 53.7674L45.9047 45.9434C47.5546 45.0007 48.9327 43.6219 49.8936 41.948C50.8482 40.2806 51.3539 38.3759 51.3539 36.4456V21.3941C51.3539 19.4637 50.8482 17.5655 49.8936 15.8981C48.9391 14.2307 47.561 12.8518 45.911 11.9091L32.1932 4.08514C30.6065 3.18089 28.8175 2.71274 27.0032 2.71274V2.72556H27.0095Z" fill="#404040"/>
<path d="M26.8831 53.1774C24.9803 53.1774 23.1028 52.6836 21.4402 51.7408L9.93494 45.1738C8.20283 44.1798 6.76152 42.7368 5.75639 40.9925C4.75126 39.2417 4.22025 37.2537 4.22025 35.2271V22.6126C4.22025 20.586 4.75126 18.598 5.75639 16.8472C6.76152 15.0964 8.20283 13.6535 9.93494 12.6659L21.4402 6.09886C23.1091 5.15613 24.9803 4.66232 26.8831 4.66232C28.7859 4.66232 30.6634 5.15613 32.3259 6.09886L43.8312 12.6659C45.5633 13.6535 47.0046 15.1028 48.0097 16.8472C49.0149 18.5916 49.5459 20.586 49.5459 22.6126V35.2271C49.5459 37.2537 49.0149 39.2417 48.0097 40.9925C47.0046 42.7433 45.5633 44.1862 43.8312 45.1738L32.3259 51.7344C30.6634 52.6836 28.7859 53.1774 26.8831 53.1774V53.1774ZM26.8831 6.93256C25.3596 6.93256 23.8614 7.32376 22.5275 8.0805L11.0223 14.6347C9.63783 15.4299 8.48098 16.5843 7.67814 17.9887C6.8753 19.3932 6.45176 20.9836 6.45176 22.6126V35.2271C6.45176 36.8496 6.8753 38.4465 7.67814 39.8445C8.48098 41.2426 9.63783 42.4034 11.0223 43.1986L22.5275 49.7656C23.8614 50.5159 25.3596 50.9135 26.8831 50.9135C28.4066 50.9135 29.9048 50.5159 31.2386 49.7656L42.7439 43.1986C44.1283 42.4034 45.2851 41.249 46.088 39.8445C46.8908 38.4465 47.3144 36.8496 47.3144 35.2271V22.5997C47.3144 20.9772 46.8908 19.3868 46.088 17.9823C45.2851 16.5843 44.1283 15.4299 42.7439 14.6347L31.2386 8.06767C29.9048 7.31093 28.4066 6.91332 26.8831 6.91973V6.93897V6.93256Z" fill="#404040"/>
<path d="M39.6779 37.6577L27.7175 25.5626V21.8751H35.2086C35.4804 21.8751 35.7459 21.7532 35.9102 21.5223C36.1378 21.1953 36.1125 20.7656 35.8597 20.477L33.7925 18.0529L35.8597 15.7249C36.1125 15.4363 36.1505 15.0066 35.9229 14.6796C35.7649 14.4487 35.493 14.3204 35.2212 14.3204H26.8957C26.4342 14.3204 26.0612 14.6988 26.0612 15.167V25.5754L14.1008 37.6705C13.671 38.1066 13.671 38.8249 14.1008 39.2609C14.5307 39.697 15.2387 39.697 15.6686 39.2609L18.4754 36.4199C19.6954 35.1886 21.6804 35.2399 22.8372 36.5354C23.1217 36.8496 23.5895 36.9073 23.9309 36.6636L24.5314 36.2404C25.7705 35.3618 27.4393 35.4516 28.5836 36.452L29.7847 37.5038C29.9364 37.6384 30.126 37.709 30.3283 37.709C30.4484 37.709 30.5748 37.6833 30.7013 37.6192C30.834 37.5487 30.9478 37.4525 31.03 37.3242L33.1414 34.2203L38.1102 39.2545C38.3251 39.4726 38.6096 39.5816 38.894 39.5816C39.1785 39.5816 39.463 39.4662 39.6842 39.2481C40.1141 38.8056 40.1141 38.0938 39.6842 37.6577H39.6779Z" fill="#404040"/>
</g>
<defs>
<clipPath id="clip0_515_3263">
<rect width="54" height="58" fill="white"/>
</clipPath>
</defs>
</svg>
