<?xml version="1.0" encoding="UTF-8"?><svg id="Calque_2" xmlns="http://www.w3.org/2000/svg" width="34" height="31.5279" viewBox="0 0 34 31.5279"><g id="Calque_1-2"><path d="M33.1927,2.1701v27.1871c0,.0237-.0005.0468-.0016.07-.0016.0231-.0032.0463-.0054.0694-.0022.0226-.0054.0452-.0086.0678-.0032.0226-.0075.0452-.0118.0673v.0005c-.014.0667-.0323.1313-.0549.1938-.0156.0414-.0328.0823-.0517.1222-.0291.0597-.0619.1168-.0985.1712-.0242.0366-.0506.0716-.0786.105-.0156.0188-.0318.0377-.0484.0554-.0167.0183-.0334.0361-.0511.0527-.0156.0156-.0318.0301-.0479.0447-.0065.0059-.0129.0118-.0199.0172-.0118.0108-.0248.021-.0371.0307-.0043.0032-.0081.0065-.0124.0097-.014.0108-.028.0215-.042.0312-.0065.0048-.0129.0097-.0194.0135-.0172.0124-.035.0242-.0528.035-.0005.0005-.0011.0005-.0016.0011-.0156.0097-.0312.0194-.0474.028-.0097.0054-.0183.0108-.028.0156-.0296.0161-.0603.0312-.0915.0447-.014.0065-.028.0124-.0425.0178-.0027.0016-.0054.0027-.0081.0032-.0097.0043-.0194.0081-.0291.0113-.0022.0011-.0038.0016-.0059.0022-.007.0032-.0145.0059-.0221.0081-.021.0075-.042.014-.0635.0199-.021.0065-.0425.0124-.0646.0172-.0027.0005-.0059.0016-.0086.0022-.0178.0043-.0361.0081-.0544.0113-.0016.0005-.0038.0011-.0054.0011-.0178.0032-.0355.0065-.0533.0086-.0258.0038-.0522.007-.0791.0091-.0188.0016-.0377.0027-.0565.0032-.0172.0011-.0339.0016-.0511.0016H2.1701c-.753,0-1.3628-.6104-1.3628-1.3633V2.1701c0-.0705.0054-.1399.0156-.2072.0032-.0226.0075-.0452.0118-.0673.014-.0667.0323-.1313.0549-.1938.0129-.0355.0275-.07.0431-.1039.0307-.0662.0667-.1297.1071-.1895.0242-.0366.0506-.0716.0786-.105.2497-.303.6281-.4962,1.0517-.4962h29.6678c.0172,0,.0339.0005.0511.0016.0167.0005.0334.0016.0501.0027.0108.0011.021.0022.0318.0032.028.0027.056.0065.0834.0113.0156.0027.0312.0054.0463.0081.0135.0027.0269.0054.0404.0091.0237.0054.0468.0113.07.0183.0065.0016.0129.0032.0188.0059.0151.0038.0301.0086.0447.014.0075.0022.0151.0048.0221.0081.0022.0005.0038.0011.0059.0022.0097.0032.0194.007.0291.0113.0027.0005.0054.0016.0081.0032.0145.0054.0285.0113.0425.0178.0312.0135.0619.0285.0915.0447.0097.0048.0183.0102.028.0156.0167.0092.0328.0188.049.0291.021.0129.0414.0269.0619.0409.0199.014.0398.0285.0587.0441.0156.0118.0312.0242.0458.0377.0075.0059.0151.0124.0221.0194.0145.0124.0291.0258.0431.0398.0178.0172.0344.0344.0511.0527.0167.0183.0328.0366.0484.0554.028.0334.0544.0684.0786.105.0102.0151.0199.0301.0296.0458.0091.0151.0188.0307.0275.0468.0178.0312.035.0635.0501.0969.0156.0339.0301.0684.0431.1039.0226.0624.0409.127.0549.1938.0043.0221.0086.0447.0118.0673.007.0452.0113.0915.014.1383.0011.0226.0016.0458.0016.0689Z" style="fill:#f5c33c;"/><path d="M16.4316.8073l-3.879,4.385-.3176.359-1.021,1.154-.6776.7664-1.3531,1.5291-3.703,4.1864L.8073,18.4694l-.0005.0005V2.1707c0-.0705.0054-.1399.0161-.2078.0032-.0226.0075-.0452.0118-.0673.0135-.0662.0318-.1313.0549-.1938.0129-.0355.0275-.07.0431-.1039.0307-.0662.0667-.1297.1071-.1895.0242-.0366.0506-.0716.0786-.105.2497-.303.6281-.4962,1.0517-.4962h14.2615Z" style="fill:#f2a551;"/><path d="M33.1932,2.1707v27.1871c0,.0231-.0005.0463-.0021.0694-.0016.0231-.0032.0463-.0054.0694-.0022.0226-.0054.0452-.0086.0678-.0032.0226-.0075.0452-.0118.0673v.0005c-.014.0667-.0323.1313-.0549.1938-.0151.042-.0323.0823-.0517.1222-.0291.0597-.0619.1168-.0985.1712-.0242.0366-.0506.0716-.0786.105-.0156.0188-.0318.0377-.0484.0554-.0167.0183-.0334.0361-.0511.0527-.0156.0156-.0318.0301-.0479.0447-.0065.0059-.0129.0118-.0199.0172-.0118.0108-.0248.021-.0371.0307-.0043.0032-.0081.0065-.0124.0097-.014.0108-.028.0215-.042.0312-.0237.0172-.0484.0339-.0737.0495-.0156.0097-.0312.0194-.0474.028-.0102.0059-.0199.0113-.0301.0167-.0291.0156-.0587.0301-.0893.0436-.014.0065-.028.0124-.0425.0178-.014.0065-.0285.0118-.0431.0167-.007.0032-.0145.0059-.0221.0081-.0011.0005-.0027.0011-.0038.0016-.0194.0065-.0398.0124-.0597.0183-.085.0253-.1738.042-.2654.0495-.0188.0016-.0377.0027-.0565.0032-.0183.0011-.0366.0016-.0549.0016H4.9975l.014-.0161.4688-.5296,2.6029-2.9425.7934-.8967,2.3666-2.6755,3.935-4.4485,5.0206-5.6756,2.1992-2.4861,1.1981-1.3542,3.6659-4.1444.3176-.359.9403-1.063,2.9387-3.322h.3757c.0183,0,.0366.0005.0549.0016.0167.0005.0334.0016.0501.0027.0108.0011.021.0022.0318.0032.0183.0016.0361.0038.0538.0065.0097.0011.0199.0027.0296.0048.0759.0118.1491.0307.2201.0554.0075.0022.0151.0048.0221.0081.0145.0048.0291.0102.0431.0167.0145.0054.0285.0113.0425.0178.0307.0135.0603.028.0893.0436.0102.0054.0199.0108.0301.0167.0167.0092.0328.0188.049.0291.021.0129.0414.0269.0619.0409.0199.014.0398.0285.0587.0441.0145.0113.0291.0226.0425.0344.0011.0011.0022.0022.0032.0032.0075.0059.0151.0124.0221.0194.0145.0124.0291.0258.0431.0398.0178.0172.0344.0344.0511.0527.0167.0183.0328.0366.0484.0554.028.0334.0544.0684.0786.105.0102.0151.0199.0301.0296.0458.0091.0151.0188.0307.0275.0468.0178.0312.035.0635.0501.0969.0156.0339.0301.0684.0431.1039.0226.0624.0409.127.0549.1938.0043.0221.0086.0447.0118.0673.0032.0221.0059.0441.0086.0662v.0048c.0022.0215.0038.0431.0054.0646v.0022c.0016.0231.0021.0463.0021.07Z" style="fill:#f2a551;"/><path d="M16.4316.8073l-3.879,4.385-.3176.359-1.021,1.154-.6776.7664-1.3531,1.5291-3.703,4.1864L.8073,18.4694l-.0005.0005V2.1707c0-.0705.0054-.1399.0161-.2078.0032-.0226.0075-.0452.0118-.0673.0135-.0662.0318-.1313.0549-.1938.0129-.0355.0275-.07.0431-.1039.0307-.0662.0667-.1297.1071-.1895.0242-.0366.0506-.0716.0786-.105.2497-.303.6281-.4962,1.0517-.4962h14.2615Z" style="fill:#f9da94;"/><path d="M33.1932,2.1707v27.1871c0,.0231-.0005.0463-.0021.0694-.0016.0231-.0032.0463-.0054.0694-.0022.0226-.0054.0452-.0086.0678-.0032.0226-.0075.0452-.0118.0673v.0005c-.014.0667-.0323.1313-.0549.1938-.0151.042-.0323.0823-.0517.1222-.0291.0597-.0619.1168-.0985.1712-.0242.0366-.0506.0716-.0786.105-.0156.0188-.0318.0377-.0484.0554-.0167.0183-.0334.0361-.0511.0527-.0156.0156-.0318.0301-.0479.0447-.0065.0059-.0129.0118-.0199.0172-.0118.0108-.0248.021-.0371.0307-.0043.0032-.0081.0065-.0124.0097-.014.0108-.028.0215-.042.0312-.0237.0172-.0484.0339-.0737.0495-.0156.0097-.0312.0194-.0474.028-.0102.0059-.0199.0113-.0301.0167-.0291.0156-.0587.0301-.0893.0436-.014.0065-.028.0124-.0425.0178-.014.0065-.0285.0118-.0431.0167-.007.0032-.0145.0059-.0221.0081-.0011.0005-.0027.0011-.0038.0016-.0194.0065-.0398.0124-.0597.0183-.085.0253-.1738.042-.2654.0495-.0188.0016-.0377.0027-.0565.0032-.0183.0011-.0366.0016-.0549.0016H4.9975l.014-.0161.4688-.5296,2.6029-2.9425.7934-.8967,2.3666-2.6755,3.935-4.4485,5.0206-5.6756,2.1992-2.4861,1.1981-1.3542,3.6659-4.1444.3176-.359.9403-1.063,2.9387-3.322h.3757c.0183,0,.0366.0005.0549.0016.0167.0005.0334.0016.0501.0027.0108.0011.021.0022.0318.0032.0183.0016.0361.0038.0538.0065.0097.0011.0199.0027.0296.0048.0759.0118.1491.0307.2201.0554.0075.0022.0151.0048.0221.0081.0145.0048.0291.0102.0431.0167.0145.0054.0285.0113.0425.0178.0307.0135.0603.028.0893.0436.0102.0054.0199.0108.0301.0167.0167.0092.0328.0188.049.0291.021.0129.0414.0269.0619.0409.0199.014.0398.0285.0587.0441.0145.0113.0291.0226.0425.0344.0011.0011.0022.0022.0032.0032.0075.0059.0151.0124.0221.0194.0145.0124.0291.0258.0431.0398.0178.0172.0344.0344.0511.0527.0167.0183.0328.0366.0484.0554.028.0334.0544.0684.0786.105.0102.0151.0199.0301.0296.0458.0091.0151.0188.0307.0275.0468.0178.0312.035.0635.0501.0969.0156.0339.0301.0684.0431.1039.0226.0624.0409.127.0549.1938.0043.0221.0086.0447.0118.0673.0032.0221.0059.0441.0086.0662v.0048c.0022.0215.0038.0431.0054.0646v.0022c.0016.0231.0021.0463.0021.07Z" style="fill:#f1b00a;"/><path d="M28.3518,16.4607l.1679-.1728.5086-.5237-.5086-.5242-.1679-.1728c-.141-.1453-2.4909-2.5275-5.9539-4.0174-.324-.1394-.6577-.2707-1-.3918.7826-.2767,1.5189-.6077,2.1981-.9624,2.7977-1.4597,4.6315-3.3193,4.7558-3.4474l.1679-.1728.5086-.5242h-2.8763c-.7885.6717-2.1395,1.704-3.8279,2.5383.3682-.7697.5748-1.6298.5748-2.5383h-1.999c0,2.1508-1.7498,3.9006-3.9006,3.9006s-3.8995-1.7498-3.8995-3.9006h-1.999c0,.3951.0393.781.113,1.154.0969.4855.253.9494.4613,1.3843-.3994-.1975-.7799-.4058-1.1389-.6179-1.1577-.6846-2.0878-1.4075-2.6895-1.9204h-2.8752l.5086.5242.1679.1728c.105.1087,1.4338,1.4565,3.5351,2.7525.985.6087,2.1405,1.2051,3.4188,1.6572-4.005,1.4166-6.7995,4.2504-6.9539,4.4092l-.1679.1728-.5086.5242.5086.5237.1679.1728c.1545.1588,2.949,2.9926,6.9539,4.4097-4.005,1.4161-6.7995,4.2504-6.9539,4.4092l-.1679.1728-.5086.5237h2.8752c.7202-.613,1.9091-1.5264,3.3962-2.316.1415-.0754.2853-.1491.4322-.2218-.3682.7691-.5743,1.6303-.5743,2.5378h1.999c0-2.1502,1.7492-3.8995,3.8995-3.8995s3.9006,1.7492,3.9006,3.8995h1.999c0-.9075-.2067-1.7686-.5748-2.5378,1.6884.8348,3.0394,1.8666,3.8279,2.5378h2.8763l-.5086-.5237-.1679-.1728c-.1545-.1588-2.9495-2.9931-6.9539-4.4092,4.0044-1.4172,6.7995-4.2509,6.9539-4.4097ZM11.6753,18.3014c-1.689-.8343-3.0399-1.8666-3.8284-2.5372.7885-.6712,2.1395-1.704,3.8284-2.5378-.3682.7691-.5743,1.6292-.5743,2.5378,0,.908.2061,1.7681.5743,2.5372ZM20.8919,16.0193c-.1243,1.943-1.6938,3.512-3.6368,3.6368-.7524.0479-1.4629-.1184-2.077-.4446-1.3052-.6922-2.1723-2.1034-2.07-3.7025.1243-1.943,1.6933-3.5125,3.6363-3.6374,1.4263-.091,2.7041.5894,3.4544,1.6642.4871.6965.7524,1.5587.6932,2.4834ZM22.3242,18.3014c.3682-.7691.5748-1.6292.5748-2.5372,0-.9085-.2067-1.7686-.5748-2.5378,1.6884.8337,3.0394,1.8666,3.8279,2.5378-.7885.6706-2.1395,1.703-3.8279,2.5372Z" style="fill:#3f3f3f;"/><path d="M31.8379,31.5279H2.1701c-1.1966,0-2.1701-.9738-2.1701-2.1707V2.1701c0-.109.0082-.2186.0243-.3258.0051-.0348.0114-.0695.0181-.1034l.0022-.0109c.0216-.1033.0506-.2052.0859-.303.0201-.0553.0425-.1095.0689-.1668.0488-.1053.1056-.2059.1696-.3009.0389-.0585.0822-.1163.1287-.172.4138-.5005,1.0232-.7874,1.6725-.7874h29.6678c.0301,0,.0595.0008.0895.0025.0195.0008.039.0019.0585.0032l.0653.0059c.0465.0045.0956.0111.1431.0195l.064.0114c.0175.0035.0445.0089.0773.0173.032.0075.0623.0155.0918.024.0131.0035.0279.0078.0441.013.0199.0059.04.0123.06.0193.0184.006.0367.0126.0546.0197.0111.004.0223.0083.0333.0127.0114.0043.0227.0089.034.0137.0191.0077.0382.0158.0575.0246.0472.0207.0944.0437.1407.0687.0146.0077.0289.0156.0432.0239.0258.0142.0548.0314.0838.0497.0303.0188.0601.0388.0897.0591l.0083.0058c.0235.0165.0576.041.0948.071.0194.015.044.0346.0708.0582.0135.0113.0266.0229.0394.0347.0225.0199.0448.0407.0665.0622.0285.0278.0554.0556.0822.085.0246.027.0491.0549.0729.0836.0441.0525.0879.111.1274.1704.0156.0231.0305.0463.0453.0702l.0069.0112c.0136.0223.0273.0454.0402.069.0313.0554.0565.1047.079.1545.0256.0557.0474.1087.0668.1618.0358.099.0647.2008.0864.3042l.0024.0121c.0065.0333.0127.0675.0177.1016.0101.0663.0172.1354.0216.2112l.0004.0082c.0017.0352.0025.0712.0025.1073v27.1871c0,.0364-.0008.072-.0025.1075l-.0011.0191c-.0022.0315-.0043.0596-.0069.0876-.0035.0369-.0082.0721-.0133.1072-.0012.0081-.0024.0162-.0037.0243v.0124l-.0172.0825c-.0217.1034-.0506.2053-.0859.3028l-.0037.0099c-.0236.0625-.0496.124-.0773.1826l-.0038.0079c-.0448.092-.0962.1815-.153.2662-.0396.0595-.0833.118-.1302.174-.0265.0319-.0512.0601-.0754.0861-.0214.0234-.0491.053-.0822.0846-.0225.0221-.0455.0432-.0687.0641-.0073.0066-.021.0191-.0394.0344-.0228.0198-.0437.0364-.0618.0506l-.0035.0027c-.0054.0043-.0108.0085-.0163.0127-.0192.0148-.0386.0293-.0579.0431-.0084.0062-.0194.0141-.0326.0231l-.0366.0366-.0867.0429c-.0138.0083-.0296.0175-.047.027-.0146.0084-.0283.016-.0422.0233-.0464.025-.0936.048-.1406.0686-.0194.0088-.0387.0171-.0582.0249-.0108.0046-.0217.009-.0327.0131-.0114.0045-.0228.0089-.0342.013-.0189.0075-.0381.0143-.0574.0206-.0296.0102-.0599.0197-.0919.0287-.0355.0106-.0692.0196-.1024.0272-.0026.0007-.0052.0013-.0078.0019-.0263.0064-.0532.0121-.0802.0173-.0131.0027-.0262.0052-.0394.0073-.0253.0045-.0495.0084-.0736.0115-.0438.0062-.0841.0108-.123.0139-.0265.0022-.0551.0039-.084.005-.0295.0016-.0584.0024-.0881.0024ZM1.6256,2.0581c-.0013.0064-.0025.013-.0035.0195l-.001.0066c-.0043.028-.0064.057-.0064.0859v27.1871c0,.3066.2492.556.5554.556h29.6678l.0286-.0013c.0039-.0001.0078-.0004.0117-.0007.0125-.0011.0219-.0024.0311-.0037l.0927-.0225.028-.0128.0151-.0037.0232-.0104.0127-.0121.0647-.032.0247-.0179c.0032-.0025.0064-.005.0096-.0075l.0237-.0204c.003-.0027.0058-.0053.0086-.008l.0162-.0157s.0039-.0045.0075-.0085l.0084-.009c.0052-.0055.01-.0115.0148-.0173l.0038-.0046c.009-.0106.0169-.0212.0237-.0315l.0031-.0047c.0149-.0222.0285-.0457.0406-.07.0077-.0165.0151-.0341.0221-.0524.008-.0228.0148-.0468.0204-.0716.0016-.0083.0034-.0167.0046-.0251.0014-.0099.0031-.02.0041-.0302.0011-.0114.002-.0243.0029-.0375.0003-.0082.0004-.0165.0004-.0249V2.1701c0-.009-.0002-.0181-.0005-.0269-.0014-.0229-.0033-.0421-.0056-.057l-.0013-.009c-.0009-.0063-.0022-.0127-.0035-.0191-.0061-.0284-.0139-.0558-.0232-.0814-.0039-.0107-.0097-.0246-.0173-.0409l-.0026-.0057c-.0007-.0014-.0045-.0097-.0161-.0301l-.0132-.0227c-.0032-.0052-.0065-.0102-.0099-.0153l-.0053-.0079c-.0067-.0101-.0148-.0208-.024-.0318-.0105-.0127-.0183-.0213-.0263-.03-.0059-.0065-.0111-.0118-.0165-.0171l-.0636-.0546h0c-.0098-.0066-.0194-.0136-.0294-.0198l-.0397-.0227-.0422-.0188-.0163-.004-.0276-.0128-.0849-.021c-.009-.0016-.0162-.0025-.0233-.0032l-.0544-.0037H2.1701c-.1664,0-.3227.0737-.4287.2023l-.0044.0053c-.0092.011-.0172.0216-.0237.0315l-.0045.0068c-.0167.0247-.0314.0506-.0436.0771-.0066.0143-.0124.0281-.0167.04-.009.0248-.0168.0522-.0228.0804ZM32.198,29.7812l.0004-.0003s-.0003.0002-.0004.0003ZM32.0889,1.6784c.0006.0003.0011.0007.0017.001l-.0017-.001Z" style="fill:#3f3f3f;"/></g></svg>