<svg width="125" height="116" viewBox="0 0 125 116" fill="none" xmlns="http://www.w3.org/2000/svg">
<path d="M122.385 106L112.378 90.4391L125 84.8456C112.376 79.1876 85.5518 73.7986 63 72V94.1064C85.71 95.6651 107.997 101.813 122.385 106Z" fill="url(#paint0_linear_516_3769)"/>
<path fill-rule="evenodd" clip-rule="evenodd" d="M109.432 89.5568L119.85 84.9401C106.814 80.2372 84.6033 75.916 65 74.1757V92.2491C84.7309 93.817 103.956 98.6844 117.827 102.609L109.432 89.5568ZM122.385 106C121.445 105.726 120.47 105.444 119.464 105.155C105.081 101.029 84.2254 95.5632 63 94.1064V72C63.6631 72.0529 64.33 72.1089 65 72.1679C85.6865 73.9898 109.446 78.6901 122.459 83.784C123.359 84.1363 124.207 84.4904 125 84.8456L112.378 90.4391L122.385 106Z" fill="url(#paint1_linear_516_3769)"/>
<path d="M2.65672 106L12.8259 90.4391L0 84.8456C12.8275 79.1876 40.0844 73.7986 63 72V94.1064C39.9238 95.6651 17.2776 101.813 2.65672 106Z" fill="url(#paint2_linear_516_3769)"/>
<path fill-rule="evenodd" clip-rule="evenodd" d="M15.7949 89.552L5.2208 84.9405C18.4837 80.2334 41.0732 75.9106 61 74.1726V92.2468C40.9228 93.8138 21.3578 98.6927 7.25396 102.621L15.7949 89.552ZM2.65672 106C3.60217 105.729 4.58117 105.45 5.59169 105.165C20.2082 101.037 41.416 95.5643 63 94.1064V72C62.3368 72.0521 61.67 72.1071 61 72.1651C39.9686 73.9853 15.8028 78.6891 2.57496 83.7866C1.66313 84.138 0.803276 84.4913 0 84.8456L12.8259 90.4391L2.65672 106Z" fill="url(#paint3_linear_516_3769)"/>
<g filter="url(#filter0_d_516_3769)">
<path d="M114 54C114 82.1665 91.1665 105 63 105C34.8335 105 12 82.1665 12 54C12 25.8335 34.8335 3 63 3C91.1665 3 114 25.8335 114 54Z" fill="url(#paint4_linear_516_3769)"/>
<path fill-rule="evenodd" clip-rule="evenodd" d="M117 54C117 83.8234 92.8234 108 63 108C33.1766 108 9 83.8234 9 54C9 24.1766 33.1766 0 63 0C92.8234 0 117 24.1766 117 54ZM63 105C91.1665 105 114 82.1665 114 54C114 25.8335 91.1665 3 63 3C34.8335 3 12 25.8335 12 54C12 82.1665 34.8335 105 63 105Z" fill="#3F3F3F"/>
<path d="M109 54C109 79.4051 88.4051 100 63 100C37.5949 100 17 79.4051 17 54C17 28.5949 37.5949 8 63 8C88.4051 8 109 28.5949 109 54Z" fill="url(#paint5_linear_516_3769)"/>
<path fill-rule="evenodd" clip-rule="evenodd" d="M63 98C87.3005 98 107 78.3005 107 54C107 29.6995 87.3005 10 63 10C38.6995 10 19 29.6995 19 54C19 78.3005 38.6995 98 63 98ZM63 100C88.4051 100 109 79.4051 109 54C109 28.5949 88.4051 8 63 8C37.5949 8 17 28.5949 17 54C17 79.4051 37.5949 100 63 100Z" fill="#3F3F3F"/>
<path d="M63.5011 90.9999C60.7519 91.0071 58.0469 90.2948 55.6446 88.931L37.2332 78.4232C34.7362 76.9973 32.657 74.918 31.2098 72.3995C29.7626 69.8809 28.9998 67.0141 29 64.0947V43.9047C28.9998 40.9853 29.7626 38.1185 31.2098 35.6C32.657 33.0814 34.7362 31.0019 37.2332 29.5759L55.6446 19.0684C58.0458 17.7117 60.7456 17 63.4904 17C66.2353 17 68.9351 17.7117 71.3363 19.0684L89.7668 29.5759C92.264 31.0017 94.3433 33.0811 95.7905 35.5997C97.2377 38.1183 98.0004 40.9852 98 43.9047V64.0947C97.9979 67.0119 97.2341 69.876 95.787 72.392C94.34 74.9081 92.2619 76.9854 89.7668 78.4102L71.3555 88.918C68.9551 90.2861 66.2507 91.0029 63.5011 90.9999Z" fill="url(#paint6_linear_516_3769)"/>
<path fill-rule="evenodd" clip-rule="evenodd" d="M56.3851 20.3729C56.3842 20.3734 56.3834 20.3739 56.3825 20.3744L37.9771 30.8785C37.9769 30.8786 37.9772 30.8785 37.9771 30.8785C35.7143 32.1707 33.826 34.0576 32.5104 36.3473C31.1946 38.6372 30.4998 41.2461 30.5 43.9046V64.0947C30.4998 66.7532 31.1946 69.3622 32.5104 71.6521C33.8261 73.9419 35.7141 75.8284 37.9771 77.1206L56.3851 87.6265C56.3854 87.6267 56.3849 87.6264 56.3851 87.6265C58.5615 88.8619 61.0105 89.5065 63.4971 89.5L63.5027 89.4999C65.99 89.5026 68.4379 88.8543 70.6128 87.6148L89.0229 77.1076C89.0231 77.1076 89.0228 77.1077 89.0229 77.1076C91.284 75.8164 93.1712 73.9315 94.4867 71.6442C95.8024 69.3565 96.4981 66.7502 96.5 64.0937V43.9047C96.5004 41.2462 95.8057 38.637 94.4899 36.347C93.1742 34.0573 91.286 32.1706 89.023 30.8786L70.5984 20.3744C70.5976 20.3739 70.5968 20.3734 70.5959 20.373C68.4194 19.1437 65.9745 18.5 63.4904 18.5C61.0064 18.5 58.5616 19.1437 56.3851 20.3729ZM54.9067 17.7625C57.5319 16.2791 60.4857 15.5 63.4904 15.5C66.4951 15.5 69.449 16.2791 72.0742 17.7625L72.0793 17.7653L90.5097 28.2728C93.2411 29.8323 95.5124 32.1049 97.0911 34.8524C98.6696 37.5996 99.5004 40.7244 99.5 43.9047C99.5 43.9048 99.5 43.9046 99.5 43.9047V64.0958C99.4977 67.2737 98.6657 70.3954 97.0873 73.1399C95.5088 75.8846 93.2397 78.1544 90.5106 79.7128L72.099 90.2208C69.4741 91.7167 66.514 92.5025 63.5035 92.5C63.5022 92.5 63.5008 92.4999 63.4995 92.4999L63.5011 90.9999L63.505 92.4999C63.5045 92.4999 63.504 92.5 63.5035 92.5C60.4926 92.5076 57.5317 91.7272 54.904 90.2354L54.9011 90.2337L36.4897 79.726C33.7586 78.1664 31.4879 75.8942 29.9092 73.1468C28.3307 70.3996 27.4998 67.275 27.5 64.0947V43.9048C27.5 43.9048 27.5 43.9048 27.5 43.9048C27.4998 40.7245 28.3307 37.5998 29.9092 34.8526C31.4879 32.1053 33.7582 29.833 36.4894 28.2734L54.9011 17.7657L54.9067 17.7625Z" fill="#FABD43"/>
<path fill-rule="evenodd" clip-rule="evenodd" d="M68.9044 3.33811L27.9786 91.0744C18.1395 81.7769 12 68.6054 12 54C12 25.8335 34.8335 3 63 3C64.997 3 66.9673 3.11478 68.9044 3.33811Z" fill="white" fill-opacity="0.26"/>
<mask id="mask0_516_3769" style="mask-type:alpha" maskUnits="userSpaceOnUse" x="12" y="3" width="102" height="102">
<path d="M114 54C114 82.1665 91.1665 105 63 105C34.8335 105 12 82.1665 12 54C12 25.8335 34.8335 3 63 3C91.1665 3 114 25.8335 114 54Z" fill="url(#paint7_linear_516_3769)"/>
</mask>
<g mask="url(#mask0_516_3769)">
<path d="M86.6376 -18L95.9735 -13.6451L28.336 131.355L19 127.001L86.6376 -18Z" fill="white" fill-opacity="0.14"/>
</g>
<path d="M71.8869 51.7615C71.8868 51.2092 71.4391 50.7615 70.8869 50.7615H65.432C64.8797 50.7615 64.432 51.2092 64.432 51.7615V52.1594C64.432 52.674 64.0148 53.0912 63.5002 53.0912C62.9856 53.0912 62.5684 52.674 62.5684 52.1594V51.7615C62.5684 51.2092 62.1207 50.7615 61.5684 50.7615H56.114C55.5617 50.7615 55.114 51.2092 55.114 51.7615V53.338C55.114 53.8459 55.7663 54.4889 56.2786 54.4889H71.1881C71.6074 54.4889 71.8869 53.8927 71.8869 53.338L71.8869 51.7615Z" fill="#FFF5E2"/>
<path d="M75.148 38.6478C75.1479 38.6476 75.1478 38.6475 75.1477 38.6475H65.3634C64.8488 38.6475 64.4317 39.0647 64.4317 39.5793C64.4317 40.0939 64.8488 40.5111 65.3634 40.5111C65.878 40.5111 66.2952 40.9282 66.2952 41.4428V46.1022C66.2952 46.6168 65.878 47.034 65.3634 47.034C64.8488 47.034 64.4317 47.4511 64.4317 47.9657C64.4317 48.4803 64.8488 48.8975 65.3634 48.8975H72.7502C73.3025 48.8975 73.7502 49.3452 73.7502 49.8975V64.9251C73.7502 66.7375 72.5063 68.0002 70.7216 68.0002H56.7443C55.0623 68.0002 53.2499 66.8261 53.2499 64.9251V49.8983C53.2499 49.346 53.6977 48.8983 54.2499 48.8983H61.6367C62.1513 48.8983 62.5684 48.4811 62.5684 47.9665C62.5684 47.4519 62.1513 47.0348 61.6367 47.0348C61.1221 47.0348 60.7049 46.6176 60.7049 46.103V41.4436C60.7049 40.929 61.1221 40.5119 61.6367 40.5119C62.1513 40.5119 62.5684 40.0947 62.5684 39.5801C62.5684 39.0655 62.1513 38.6483 61.6367 38.6483L51.8522 38.648C51.0834 38.648 50.4545 39.3098 50.4545 40.0875V70.2882C50.4545 70.3023 50.4582 70.3163 50.4585 70.33C50.4813 71.0894 51.0972 71.7278 51.8522 71.7278H75.1481C75.9028 71.7278 76.5186 71.0894 76.5417 70.33C76.542 70.3163 76.5458 70.3023 76.5458 70.2885V40.0878C76.5458 39.3098 75.9169 38.6482 75.1483 38.648C75.1481 38.648 75.148 38.6479 75.148 38.6478Z" fill="#FFF5E2"/>
<path d="M62.5683 43.3069C62.5683 42.7923 62.9855 42.3751 63.5001 42.3751C64.0147 42.3751 64.4318 42.7923 64.4318 43.3069V44.2388C64.4318 44.7534 64.0147 45.1706 63.5001 45.1706C62.9855 45.1706 62.5683 44.7534 62.5683 44.2388V43.3069Z" fill="#FFF5E2"/>
<path d="M56.2785 56.3525C55.7173 56.3525 55.1138 56.7263 55.1138 57.2875V64.9248C55.1138 65.6517 55.9572 66.1362 56.7446 66.1362H70.722C71.7332 66.1362 71.8867 65.3768 71.8867 64.9248V56.9552C71.8867 56.6049 71.5381 56.3522 71.1878 56.3522L56.2785 56.3525ZM60.7048 64.7389H57.4435C56.9309 64.7389 56.5116 64.3196 56.5116 63.8069C56.5116 63.2943 56.9309 62.875 57.4435 62.875H60.7048C61.2174 62.875 61.6367 63.2943 61.6367 63.8069C61.6364 64.3196 61.2171 64.7389 60.7048 64.7389ZM70.0225 64.7389H63.4999C62.9873 64.7389 62.568 64.3196 62.568 63.8069C62.568 63.2943 62.9873 62.875 63.4999 62.875H70.0228C70.5354 62.875 70.9547 63.2943 70.9547 63.8069C70.9544 64.3196 70.5351 64.7389 70.0225 64.7389Z" fill="#FFF5E2"/>
<path d="M69.1593 31.659C68.607 31.659 68.1593 31.2113 68.1593 30.659V28.8635C68.1593 27.8339 67.3253 27 66.2957 27H59.7729C58.7432 27 57.9093 27.8339 57.9093 28.8635V30.659C57.9093 31.2113 57.4616 31.659 56.9093 31.659H47.261C46.7087 31.659 46.261 32.1067 46.261 32.659V36.0525C46.261 37.2938 47.1561 38.1502 48.2409 38.4879C48.6425 38.6129 49.0376 38.3672 49.2973 38.0364C49.895 37.2749 50.819 36.7842 51.8519 36.7842H61.6364C62.151 36.7842 62.5682 36.367 62.5682 35.8524C62.5682 35.3378 62.9853 34.9206 63.4999 34.9206C64.0145 34.9206 64.4317 35.3378 64.4317 35.8524C64.4317 36.367 64.8489 36.7842 65.3635 36.7842H75.148C76.4059 36.7842 77.4955 37.5054 78.0416 38.5642C78.0677 38.6149 78.1195 38.6477 78.1765 38.6477C79.7093 38.6477 80.7389 37.6041 80.7389 36.0525V32.659C80.7389 32.1067 80.2912 31.659 79.7389 31.659H69.1593ZM66.2957 30.659C66.2957 31.2113 65.848 31.659 65.2957 31.659H60.7729C60.2206 31.659 59.7729 31.2113 59.7729 30.659V29.8635C59.7729 29.3113 60.2206 28.8635 60.7729 28.8635H65.2957C65.848 28.8635 66.2957 29.3113 66.2957 29.8635V30.659Z" fill="#FFF5E2"/>
<path d="M69.1593 31.659C68.607 31.659 68.1593 31.2113 68.1593 30.659V28.8635C68.1593 27.8339 67.3253 27 66.2957 27H59.7729C58.7432 27 57.9093 27.8339 57.9093 28.8635V30.659C57.9093 31.2113 57.4616 31.659 56.9093 31.659H47.261C46.7087 31.659 46.261 32.1067 46.261 32.659V36.0525C46.261 37.2938 47.1561 38.1502 48.2409 38.4879C48.6425 38.6129 49.0376 38.3672 49.2973 38.0364C49.895 37.2749 50.819 36.7842 51.8519 36.7842H61.6364C62.151 36.7842 62.5682 36.367 62.5682 35.8524C62.5682 35.3378 62.9853 34.9206 63.4999 34.9206C64.0145 34.9206 64.4317 35.3378 64.4317 35.8524C64.4317 36.367 64.8489 36.7842 65.3635 36.7842H75.148C76.4059 36.7842 77.4955 37.5054 78.0416 38.5642C78.0677 38.6149 78.1195 38.6477 78.1765 38.6477C79.7093 38.6477 80.7389 37.6041 80.7389 36.0525V32.659C80.7389 32.1067 80.2912 31.659 79.7389 31.659H69.1593ZM66.2957 30.659C66.2957 31.2113 65.848 31.659 65.2957 31.659H60.7729C60.2206 31.659 59.7729 31.2113 59.7729 30.659V29.8635C59.7729 29.3113 60.2206 28.8635 60.7729 28.8635H65.2957C65.848 28.8635 66.2957 29.3113 66.2957 29.8635V30.659Z" fill="#FFF5E2"/>
<path d="M78.4091 55.0226C78.4091 54.4704 78.8568 54.0226 79.4091 54.0226H82.3692C83.3941 54.0226 84 54.8441 84 55.869V66.9726C84 67.9975 83.3944 68.9316 82.3692 68.9316L79.4091 68.9319C78.8568 68.9319 78.4091 68.4842 78.4091 67.9319V55.0226Z" fill="#FFF5E2"/>
<path d="M48.5909 67.9321C48.5909 68.4844 48.1432 68.9321 47.5909 68.9321H44.7172C43.692 68.9321 43 67.998 43 66.9731V55.8695C43 54.8446 43.692 54.0231 44.7172 54.0231H47.5909C48.1432 54.0231 48.5909 54.4708 48.5909 55.0231V67.9321Z" fill="#FFF5E2"/>
</g>
<defs>
<filter id="filter0_d_516_3769" x="5" y="0" width="116" height="116" filterUnits="userSpaceOnUse" color-interpolation-filters="sRGB">
<feFlood flood-opacity="0" result="BackgroundImageFix"/>
<feColorMatrix in="SourceAlpha" type="matrix" values="0 0 0 0 0 0 0 0 0 0 0 0 0 0 0 0 0 0 127 0" result="hardAlpha"/>
<feOffset dy="4"/>
<feGaussianBlur stdDeviation="2"/>
<feComposite in2="hardAlpha" operator="out"/>
<feColorMatrix type="matrix" values="0 0 0 0 0 0 0 0 0 0 0 0 0 0 0 0 0 0 0.25 0"/>
<feBlend mode="normal" in2="BackgroundImageFix" result="effect1_dropShadow_516_3769"/>
<feBlend mode="normal" in="SourceGraphic" in2="effect1_dropShadow_516_3769" result="shape"/>
</filter>
<linearGradient id="paint0_linear_516_3769" x1="94.3196" y1="71.3462" x2="94.6437" y2="106.651" gradientUnits="userSpaceOnUse">
<stop stop-color="#B7B7B7"/>
<stop offset="0.203125" stop-color="#5B5B5B"/>
<stop offset="0.838542" stop-color="#242424"/>
<stop offset="1"/>
</linearGradient>
<linearGradient id="paint1_linear_516_3769" x1="94.3196" y1="71.3462" x2="94.6437" y2="106.651" gradientUnits="userSpaceOnUse">
<stop stop-color="#B7B7B7"/>
<stop offset="0.203125" stop-color="#5B5B5B"/>
<stop offset="0.838542" stop-color="#242424"/>
<stop offset="1"/>
</linearGradient>
<linearGradient id="paint2_linear_516_3769" x1="31.1753" y1="71.3462" x2="30.8563" y2="106.651" gradientUnits="userSpaceOnUse">
<stop stop-color="#B7B7B7"/>
<stop offset="0.203125" stop-color="#5B5B5B"/>
<stop offset="0.838542" stop-color="#242424"/>
<stop offset="1"/>
</linearGradient>
<linearGradient id="paint3_linear_516_3769" x1="31.1753" y1="71.3462" x2="30.8563" y2="106.651" gradientUnits="userSpaceOnUse">
<stop stop-color="#B7B7B7"/>
<stop offset="0.203125" stop-color="#5B5B5B"/>
<stop offset="0.838542" stop-color="#242424"/>
<stop offset="1"/>
</linearGradient>
<linearGradient id="paint4_linear_516_3769" x1="63.5258" y1="1.03846" x2="65.2982" y2="106.932" gradientUnits="userSpaceOnUse">
<stop stop-color="#B7B7B7"/>
<stop offset="0.203125" stop-color="#5B5B5B"/>
<stop offset="0.838542" stop-color="#242424"/>
<stop offset="1"/>
</linearGradient>
<linearGradient id="paint5_linear_516_3769" x1="63.4742" y1="6.23077" x2="65.0729" y2="101.742" gradientUnits="userSpaceOnUse">
<stop/>
<stop offset="0.223958" stop-color="#242424"/>
<stop offset="0.859375" stop-color="#5B5B5B"/>
<stop offset="1" stop-color="#B7B7B7"/>
</linearGradient>
<linearGradient id="paint6_linear_516_3769" x1="63.8557" y1="15.5769" x2="65.2347" y2="92.3983" gradientUnits="userSpaceOnUse">
<stop stop-color="#B7B7B7"/>
<stop offset="0.203125" stop-color="#5B5B5B"/>
<stop offset="0.838542" stop-color="#242424"/>
<stop offset="1"/>
</linearGradient>
<linearGradient id="paint7_linear_516_3769" x1="63.5258" y1="1.03846" x2="65.2982" y2="106.932" gradientUnits="userSpaceOnUse">
<stop stop-color="#FFF5DE"/>
<stop offset="0.203125" stop-color="#FFE097"/>
<stop offset="0.838542" stop-color="#CC9C56"/>
<stop offset="1" stop-color="#7A5B2D"/>
</linearGradient>
</defs>
</svg>
