<svg width="125" height="116" viewBox="0 0 125 116" fill="none" xmlns="http://www.w3.org/2000/svg">
<path d="M122.385 106L112.378 90.4391L125 84.8456C112.376 79.1876 85.5518 73.7986 63 72V94.1064C85.71 95.6651 107.997 101.813 122.385 106Z" fill="#F2E0B9"/>
<path d="M2.65672 106L12.8259 90.4391L0 84.8456C12.8275 79.1876 40.0844 73.7986 63 72V94.1064C39.9238 95.6651 17.2776 101.813 2.65672 106Z" fill="#F2E0B9"/>
<g filter="url(#filter0_d_516_3733)">
<path d="M113 54C113 82.1665 90.1665 105 62 105C33.8335 105 11 82.1665 11 54C11 25.8335 33.8335 3 62 3C90.1665 3 113 25.8335 113 54Z" fill="url(#paint0_linear_516_3733)"/>
<path fill-rule="evenodd" clip-rule="evenodd" d="M116 54C116 83.8234 91.8234 108 62 108C32.1766 108 8 83.8234 8 54C8 24.1766 32.1766 0 62 0C91.8234 0 116 24.1766 116 54ZM62 105C90.1665 105 113 82.1665 113 54C113 25.8335 90.1665 3 62 3C33.8335 3 11 25.8335 11 54C11 82.1665 33.8335 105 62 105Z" fill="#847766"/>
<path d="M108 54C108 79.4051 87.4051 100 62 100C36.5949 100 16 79.4051 16 54C16 28.5949 36.5949 8 62 8C87.4051 8 108 28.5949 108 54Z" fill="url(#paint1_linear_516_3733)"/>
<path fill-rule="evenodd" clip-rule="evenodd" d="M62 98C86.3005 98 106 78.3005 106 54C106 29.6995 86.3005 10 62 10C37.6995 10 18 29.6995 18 54C18 78.3005 37.6995 98 62 98ZM62 100C87.4051 100 108 79.4051 108 54C108 28.5949 87.4051 8 62 8C36.5949 8 16 28.5949 16 54C16 79.4051 36.5949 100 62 100Z" fill="#B4A48E"/>
<path d="M62.5009 85C60.1502 85.006 57.8372 84.4091 55.783 83.2665L40.04 74.4627C37.9049 73.268 36.127 71.5259 34.8895 69.4158C33.6521 67.3056 32.9998 64.9037 33 62.4577V45.5418C32.9998 43.0958 33.6521 40.6939 34.8895 38.5838C36.127 36.4736 37.9049 34.7313 40.04 33.5366L55.783 24.733C57.8362 23.5963 60.1448 23 62.4918 23C64.8389 23 67.1474 23.5963 69.2006 24.733L84.96 33.5366C87.0953 34.7312 88.8733 36.4733 90.1107 38.5835C91.3482 40.6937 92.0004 43.0957 92 45.5418V62.4577C91.9982 64.9019 91.3451 67.3015 90.1077 69.4095C88.8704 71.5176 87.0935 73.258 84.96 74.4518L69.217 83.2556C67.1645 84.4018 64.852 85.0024 62.5009 85Z" fill="url(#paint2_linear_516_3733)"/>
<path d="M61.9977 88C59.3076 88.0027 56.6614 87.3092 54.3096 85.9852L38.0637 76.782C35.6189 75.3934 33.5831 73.3694 32.1658 70.9185C30.7486 68.4677 30.001 65.6783 30 62.8374V45.1606C30.001 42.3197 30.7486 39.5304 32.1658 37.0795C33.5831 34.6287 35.6189 32.6047 38.0637 31.216L54.3074 22.0129C56.6601 20.6926 59.3052 20 61.9944 20C64.6836 20 67.3287 20.6926 69.6814 22.0129L85.9318 31.216C88.3773 32.6043 90.4139 34.6279 91.8319 37.0787C93.2499 39.5295 93.9983 42.3193 94 45.1606V62.8374C93.9983 65.6787 93.2499 68.4682 91.8319 70.9191C90.4139 73.3699 88.3773 75.3938 85.9318 76.782L69.6881 85.9738C67.3367 87.3021 64.6896 87.9996 61.9977 88ZM61.9977 23.1845C59.8458 23.182 57.7289 23.7365 55.8477 24.7956L39.604 33.9811C37.6445 35.0932 36.0132 36.715 34.8782 38.6794C33.7433 40.6438 33.1459 42.8794 33.1477 45.1559V62.833C33.1463 65.1091 33.7439 67.3445 34.8788 69.3084C36.0137 71.2724 37.6448 72.8937 39.604 74.0056L55.8477 83.209C57.7297 84.2638 59.845 84.8172 61.9955 84.8172C64.146 84.8172 66.2613 84.2638 68.1433 83.209L84.3871 74.0056C86.3462 72.8937 87.9774 71.2724 89.1123 69.3084C90.2472 67.3445 90.8448 65.1091 90.8434 62.833V45.1332C90.842 42.8598 90.2431 40.6279 89.1083 38.6669C87.9736 36.706 86.3439 35.0869 84.3871 33.9764L68.1433 24.773C66.2624 23.7131 64.1453 23.1585 61.9933 23.1618L61.9977 23.1845Z" fill="url(#paint3_linear_516_3733)"/>
<path d="M53.4705 54.3363C53.4705 53.8652 53.8523 53.4834 54.3233 53.4834C54.7944 53.4834 55.1762 53.8652 55.1762 54.3363V55.1893C55.1762 55.6603 54.7944 56.0422 54.3233 56.0422C53.8523 56.0422 53.4705 55.6603 53.4705 55.1893V54.3363Z" fill="#FFF9EC"/>
<path d="M68.8233 54.3363C68.8233 53.8652 69.2052 53.4834 69.6762 53.4834C70.1472 53.4834 70.5291 53.8652 70.5291 54.3363V55.1893C70.5291 55.6603 70.1472 56.0422 69.6762 56.0422C69.2052 56.0422 68.8233 55.6603 68.8233 55.1893V54.3363Z" fill="#FFF9EC"/>
<path d="M66.8383 35.1449C66.286 35.1449 65.8383 34.6972 65.8383 34.1449V33.6225C65.8383 32.1515 64.1536 31 62 31C59.8465 31 58.1618 32.1515 58.1618 33.6225V34.1449C58.1618 34.6972 57.7141 35.1449 57.1618 35.1449H46.794C46.2417 35.1449 45.794 35.5926 45.794 36.1449V41.286C45.794 43.671 48.7944 45.791 52.4585 46.1699C53.0131 46.2272 53.4704 45.7729 53.4704 45.2153V44.1009C53.4704 43.6298 53.8523 43.248 54.3233 43.248C54.7944 43.248 55.1762 43.6298 55.1762 44.1009V45.2332C55.1762 45.7855 55.6239 46.2332 56.1762 46.2332H67.8234C68.3757 46.2332 68.8234 45.7855 68.8234 45.2332V44.1009C68.8234 43.6298 69.2053 43.248 69.6763 43.248C70.1474 43.248 70.5292 43.6298 70.5292 44.1009V46.0713C70.5292 46.1607 70.6017 46.2332 70.6911 46.2332C74.7641 46.2332 78.206 43.9685 78.206 41.286V36.1449C78.206 35.5926 77.7583 35.1449 77.206 35.1449H66.8383ZM59.8676 33.6225C59.8676 33.2984 60.6778 32.7061 62 32.7061C63.322 32.7061 64.1325 33.2989 64.1325 33.6225V34.1449C64.1325 34.6972 63.6848 35.1449 63.1325 35.1449H60.8676C60.3153 35.1449 59.8676 34.6972 59.8676 34.1449V33.6225ZM70.956 41.5416H53.0444C52.5751 41.5416 52.1913 41.1578 52.1913 40.6886C52.1913 40.2194 52.5751 39.8356 53.0444 39.8356H70.956C71.4252 39.8356 71.8091 40.2194 71.8091 40.6886C71.8091 41.1578 71.4252 41.5416 70.956 41.5416Z" fill="#FFF9EC"/>
<path d="M70.6919 47.9386C70.6022 47.9387 70.5296 48.0114 70.5296 48.101V50.9241C70.5296 51.3952 70.9115 51.777 71.3825 51.777C71.8536 51.777 72.2354 52.1589 72.2354 52.6299V56.8948C72.2354 57.3658 71.8536 57.7477 71.3825 57.7477C70.9115 57.7477 70.5296 58.1295 70.5296 58.6006V64.9974C70.5296 65.4685 70.1478 65.8503 69.6767 65.8503C69.2057 65.8503 68.8238 65.4685 68.8238 64.9975L68.8236 58.6005C68.8236 58.1295 68.4417 57.7477 67.9707 57.7477C67.4996 57.7477 67.1178 57.3658 67.1178 56.8948V52.6299C67.1178 52.1589 67.4996 51.777 67.9707 51.777C68.4417 51.777 68.8236 51.3952 68.8236 50.9241V48.9388C68.8236 48.3865 68.3759 47.9388 67.8236 47.9388H56.1771C55.6248 47.9388 55.1771 48.3865 55.1771 48.9388V50.9241C55.1771 51.3952 55.5589 51.777 56.03 51.777C56.501 51.777 56.8828 52.1589 56.8828 52.6299V56.8948C56.8828 57.3658 56.501 57.7477 56.03 57.7477C55.5589 57.7477 55.1771 58.1295 55.1771 58.6006V64.9974C55.1771 65.4685 54.7952 65.8503 54.3242 65.8503C53.8531 65.8503 53.4713 65.4685 53.4713 64.9974L53.471 58.6005C53.471 58.1295 53.0892 57.7477 52.6181 57.7477C52.1471 57.7477 51.7652 57.3658 51.7652 56.8948V52.6299C51.7652 52.1589 52.1471 51.777 52.6181 51.777C53.0892 51.777 53.471 51.3952 53.471 50.9241V48.9233C53.471 48.3754 53.0294 47.9337 52.4836 47.8862C51.8309 47.8294 51.1966 47.7243 50.5878 47.576C49.9085 47.4105 49.2064 47.8971 49.2064 48.5962V70.6608C49.2064 71.3559 49.9526 71.8208 50.6478 71.8208H73.677C74.3682 71.8211 74.7945 71.3776 74.7945 70.6611V48.6648C74.7945 47.9714 74.1033 47.4855 73.4269 47.6382C72.5619 47.8335 71.6429 47.9386 70.6919 47.9386Z" fill="#FFF9EC"/>
<path fill-rule="evenodd" clip-rule="evenodd" d="M67.9044 3.33811L26.9786 91.0744C17.1395 81.7769 11 68.6054 11 54C11 25.8335 33.8335 3 62 3C63.997 3 65.9673 3.11478 67.9044 3.33811Z" fill="white" fill-opacity="0.26"/>
<mask id="mask0_516_3733" style="mask-type:alpha" maskUnits="userSpaceOnUse" x="11" y="3" width="102" height="102">
<path d="M113 54C113 82.1665 90.1665 105 62 105C33.8335 105 11 82.1665 11 54C11 25.8335 33.8335 3 62 3C90.1665 3 113 25.8335 113 54Z" fill="url(#paint4_linear_516_3733)"/>
</mask>
<g mask="url(#mask0_516_3733)">
<path d="M85.6376 -18L94.9735 -13.6451L27.336 131.355L18 127.001L85.6376 -18Z" fill="white" fill-opacity="0.14"/>
</g>
</g>
<defs>
<filter id="filter0_d_516_3733" x="4" y="0" width="116" height="116" filterUnits="userSpaceOnUse" color-interpolation-filters="sRGB">
<feFlood flood-opacity="0" result="BackgroundImageFix"/>
<feColorMatrix in="SourceAlpha" type="matrix" values="0 0 0 0 0 0 0 0 0 0 0 0 0 0 0 0 0 0 127 0" result="hardAlpha"/>
<feOffset dy="4"/>
<feGaussianBlur stdDeviation="2"/>
<feComposite in2="hardAlpha" operator="out"/>
<feColorMatrix type="matrix" values="0 0 0 0 0 0 0 0 0 0 0 0 0 0 0 0 0 0 0.25 0"/>
<feBlend mode="normal" in2="BackgroundImageFix" result="effect1_dropShadow_516_3733"/>
<feBlend mode="normal" in="SourceGraphic" in2="effect1_dropShadow_516_3733" result="shape"/>
</filter>
<linearGradient id="paint0_linear_516_3733" x1="62" y1="3" x2="62" y2="105" gradientUnits="userSpaceOnUse">
<stop stop-color="white"/>
<stop offset="0.140625" stop-color="#F8E7BC"/>
<stop offset="0.911458" stop-color="#C7B69D"/>
<stop offset="1" stop-color="#B0A390"/>
</linearGradient>
<linearGradient id="paint1_linear_516_3733" x1="62" y1="8" x2="62" y2="100" gradientUnits="userSpaceOnUse">
<stop stop-color="#E8D3B4"/>
<stop offset="1" stop-color="#F8E7BC"/>
</linearGradient>
<linearGradient id="paint2_linear_516_3733" x1="47" y1="25" x2="84" y2="85" gradientUnits="userSpaceOnUse">
<stop stop-color="#928574"/>
<stop offset="1" stop-color="#E9D4B5"/>
</linearGradient>
<linearGradient id="paint3_linear_516_3733" x1="85.3514" y1="20" x2="37.3267" y2="78.4708" gradientUnits="userSpaceOnUse">
<stop stop-color="#FFF6E4"/>
<stop offset="1" stop-color="#FFFDF9"/>
</linearGradient>
<linearGradient id="paint4_linear_516_3733" x1="62.5258" y1="1.03846" x2="64.2982" y2="106.932" gradientUnits="userSpaceOnUse">
<stop stop-color="#FFF5DE"/>
<stop offset="0.203125" stop-color="#FFE097"/>
<stop offset="0.838542" stop-color="#CC9C56"/>
<stop offset="1" stop-color="#7A5B2D"/>
</linearGradient>
</defs>
</svg>
