<svg width="125" height="116" viewBox="0 0 125 116" fill="none" xmlns="http://www.w3.org/2000/svg">
<path d="M122.385 106L112.378 90.4391L125 84.8456C112.376 79.1876 85.5518 73.7986 63 72V94.1064C85.71 95.6651 107.997 101.813 122.385 106Z" fill="#ECC77F"/>
<path d="M2.65672 106L12.8259 90.4391L0 84.8456C12.8275 79.1876 40.0844 73.7986 63 72V94.1064C39.9238 95.6651 17.2776 101.813 2.65672 106Z" fill="#ECC77F"/>
<g filter="url(#filter0_d_516_3695)">
<path d="M114 54C114 82.1665 91.1665 105 63 105C34.8335 105 12 82.1665 12 54C12 25.8335 34.8335 3 63 3C91.1665 3 114 25.8335 114 54Z" fill="url(#paint0_linear_516_3695)"/>
<path fill-rule="evenodd" clip-rule="evenodd" d="M117 54C117 83.8234 92.8234 108 63 108C33.1766 108 9 83.8234 9 54C9 24.1766 33.1766 0 63 0C92.8234 0 117 24.1766 117 54ZM63 105C91.1665 105 114 82.1665 114 54C114 25.8335 91.1665 3 63 3C34.8335 3 12 25.8335 12 54C12 82.1665 34.8335 105 63 105Z" fill="url(#paint1_linear_516_3695)"/>
<path d="M109 54C109 79.4051 88.4051 100 63 100C37.5949 100 17 79.4051 17 54C17 28.5949 37.5949 8 63 8C88.4051 8 109 28.5949 109 54Z" fill="url(#paint2_linear_516_3695)"/>
<path fill-rule="evenodd" clip-rule="evenodd" d="M63 98C87.3005 98 107 78.3005 107 54C107 29.6995 87.3005 10 63 10C38.6995 10 19 29.6995 19 54C19 78.3005 38.6995 98 63 98ZM63 100C88.4051 100 109 79.4051 109 54C109 28.5949 88.4051 8 63 8C37.5949 8 17 28.5949 17 54C17 79.4051 37.5949 100 63 100Z" fill="#847766"/>
<path d="M63.5011 90.9999C60.7519 91.0071 58.0469 90.2948 55.6446 88.931L37.2332 78.4232C34.7362 76.9973 32.657 74.918 31.2098 72.3995C29.7626 69.8809 28.9998 67.0141 29 64.0947V43.9047C28.9998 40.9853 29.7626 38.1185 31.2098 35.6C32.657 33.0814 34.7362 31.0019 37.2332 29.5759L55.6446 19.0684C58.0458 17.7117 60.7456 17 63.4904 17C66.2353 17 68.9351 17.7117 71.3363 19.0684L89.7668 29.5759C92.264 31.0017 94.3433 33.0811 95.7905 35.5997C97.2377 38.1183 98.0004 40.9852 98 43.9047V64.0947C97.9979 67.0119 97.2341 69.876 95.787 72.392C94.34 74.9081 92.2619 76.9854 89.7668 78.4102L71.3555 88.918C68.9551 90.2861 66.2507 91.0029 63.5011 90.9999Z" fill="url(#paint3_linear_516_3695)"/>
<path fill-rule="evenodd" clip-rule="evenodd" d="M56.3851 20.3729C56.3842 20.3734 56.3834 20.3739 56.3825 20.3744L37.9771 30.8785C37.9769 30.8786 37.9772 30.8785 37.9771 30.8785C35.7143 32.1707 33.826 34.0576 32.5104 36.3473C31.1946 38.6372 30.4998 41.2461 30.5 43.9046V64.0947C30.4998 66.7532 31.1946 69.3622 32.5104 71.6521C33.8261 73.9419 35.7141 75.8284 37.9771 77.1206L56.3851 87.6265C56.3854 87.6267 56.3849 87.6264 56.3851 87.6265C58.5615 88.8619 61.0105 89.5065 63.4971 89.5L63.5027 89.4999C65.99 89.5026 68.4379 88.8543 70.6128 87.6148L89.0229 77.1076C89.0231 77.1076 89.0228 77.1077 89.0229 77.1076C91.284 75.8164 93.1712 73.9315 94.4867 71.6442C95.8024 69.3565 96.4981 66.7502 96.5 64.0937V43.9047C96.5004 41.2462 95.8057 38.637 94.4899 36.347C93.1742 34.0573 91.286 32.1706 89.023 30.8786L70.5984 20.3744C70.5976 20.3739 70.5968 20.3734 70.5959 20.373C68.4194 19.1437 65.9745 18.5 63.4904 18.5C61.0064 18.5 58.5616 19.1437 56.3851 20.3729ZM54.9067 17.7625C57.5319 16.2791 60.4857 15.5 63.4904 15.5C66.4951 15.5 69.449 16.2791 72.0742 17.7625L72.0793 17.7653L90.5097 28.2728C93.2411 29.8323 95.5124 32.1049 97.0911 34.8524C98.6696 37.5996 99.5004 40.7244 99.5 43.9047C99.5 43.9048 99.5 43.9046 99.5 43.9047V64.0958C99.4977 67.2737 98.6657 70.3954 97.0873 73.1399C95.5088 75.8846 93.2397 78.1544 90.5106 79.7128L72.099 90.2208C69.4741 91.7167 66.514 92.5025 63.5035 92.5C63.5022 92.5 63.5008 92.4999 63.4995 92.4999L63.5011 90.9999L63.505 92.4999C63.5045 92.4999 63.504 92.5 63.5035 92.5C60.4926 92.5076 57.5317 91.7272 54.904 90.2354L54.9011 90.2337L36.4897 79.726C33.7586 78.1664 31.4879 75.8942 29.9092 73.1468C28.3307 70.3996 27.4998 67.275 27.5 64.0947V43.9048C27.5 43.9048 27.5 43.9048 27.5 43.9048C27.4998 40.7245 28.3307 37.5998 29.9092 34.8526C31.4879 32.1053 33.7582 29.833 36.4894 28.2734L54.9011 17.7657L54.9067 17.7625Z" fill="white"/>
<path d="M54.0564 56.0822C54.0564 55.576 54.4668 55.1655 54.9731 55.1655C55.4794 55.1655 55.8898 55.576 55.8898 56.0822V56.9991C55.8898 57.5054 55.4794 57.9158 54.9731 57.9158C54.4668 57.9158 54.0564 57.5054 54.0564 56.9991V56.0822Z" fill="url(#paint4_linear_516_3695)"/>
<path d="M70.5579 56.0822C70.5579 55.576 70.9683 55.1655 71.4746 55.1655C71.9809 55.1655 72.3913 55.576 72.3913 56.0822V56.9991C72.3913 57.5054 71.9809 57.9158 71.4746 57.9158C70.9683 57.9158 70.5579 57.5054 70.5579 56.9991V56.0822Z" fill="url(#paint5_linear_516_3695)"/>
<path d="M80.6427 36.455C80.6427 35.9027 80.195 35.455 79.6427 35.455H68.3495C67.7972 35.455 67.3495 35.0073 67.3495 34.455V33.8187C67.3495 32.2376 65.5388 31 63.2241 31C60.9095 31 59.0988 32.2376 59.0988 33.8187V34.455C59.0988 35.0073 58.651 35.455 58.0988 35.455H46.8056C46.2533 35.455 45.8056 35.9027 45.8056 36.455V42.0556C45.8056 44.6354 49.0717 46.9267 53.0441 47.3124C53.5991 47.3663 54.0564 46.9122 54.0564 46.3547V45.0811C54.0564 44.5748 54.4668 44.1644 54.9731 44.1644C55.4793 44.1644 55.8898 44.5748 55.8898 45.0811V46.3729C55.8898 46.9252 56.3375 47.3729 56.8898 47.3729H69.5581C70.1103 47.3729 70.5581 46.9252 70.5581 46.3729V45.0811C70.5581 44.5748 70.9685 44.1644 71.4748 44.1644C71.981 44.1644 72.3914 44.5748 72.3914 45.0811V47.1989C72.3914 47.295 72.4694 47.3729 72.5655 47.3729C76.9432 47.3729 80.6426 44.9388 80.6426 42.0556L80.6427 36.455ZM60.932 33.8187C60.932 33.4703 61.8028 32.8337 63.224 32.8337C64.6448 32.8337 65.516 33.4709 65.516 33.8187V34.455C65.516 35.0073 65.0683 35.455 64.516 35.455H61.932C61.3797 35.455 60.932 35.0073 60.932 34.455V33.8187ZM72.85 42.3303H53.5983C53.0939 42.3303 52.6814 41.9178 52.6814 41.4135C52.6814 40.9092 53.0939 40.4966 53.5983 40.4966H72.85C73.3544 40.4966 73.7669 40.9092 73.7669 41.4135C73.7669 41.9178 73.3544 42.3303 72.85 42.3303Z" fill="url(#paint6_linear_516_3695)"/>
<path d="M72.5663 49.2059C72.47 49.206 72.392 49.2842 72.392 49.3805V52.4148C72.392 52.9211 72.8024 53.3315 73.3087 53.3315C73.8149 53.3315 74.2254 53.7419 74.2254 54.2482V58.8322C74.2254 59.3385 73.8149 59.7489 73.3087 59.7489C72.8024 59.7489 72.392 60.1593 72.392 60.6656V67.541C72.392 68.0473 71.9815 68.4578 71.4752 68.4578C70.969 68.4578 70.5585 68.0473 70.5585 67.5411L70.5583 60.6656C70.5583 60.1593 70.1478 59.7489 69.6416 59.7489C69.1353 59.7489 68.7248 59.3385 68.7248 58.8322V54.2482C68.7248 53.7419 69.1353 53.3315 69.6415 53.3315C70.1478 53.3315 70.5582 52.9211 70.5582 52.4148V50.2061C70.5582 49.6538 70.1105 49.2061 69.5582 49.2061H56.8907C56.3385 49.2061 55.8907 49.6538 55.8907 50.2061V52.4148C55.8907 52.9211 56.3012 53.3315 56.8074 53.3315C57.3137 53.3315 57.7241 53.7419 57.7241 54.2482V58.8322C57.7241 59.3385 57.3137 59.7489 56.8074 59.7489C56.3012 59.7489 55.8907 60.1593 55.8907 60.6656V67.541C55.8907 68.0473 55.4803 68.4578 54.974 68.4578C54.4678 68.4578 54.0573 68.0473 54.0573 67.5411L54.0571 60.6656C54.0571 60.1593 53.6466 59.7489 53.1404 59.7489C52.6341 59.7489 52.2236 59.3385 52.2236 58.8322V54.2482C52.2236 53.7419 52.6341 53.3315 53.1403 53.3315C53.6466 53.3315 54.057 52.9211 54.057 52.4148V50.1903C54.057 49.6424 53.6155 49.2004 53.0694 49.1558C52.3043 49.0933 51.5622 48.9691 50.853 48.7901C50.1751 48.619 49.4734 49.1054 49.4734 49.8045V73.6282C49.4734 74.3753 50.2754 74.875 51.0226 74.875H75.7749C76.5177 74.8753 76.9759 74.3986 76.9759 73.6285V49.8798C76.9759 49.1864 76.285 48.7007 75.61 48.8591C74.65 49.0843 73.6267 49.2059 72.5663 49.2059Z" fill="url(#paint7_linear_516_3695)"/>
<path d="M41.2221 59.2721V70.1953C41.2221 71.2082 41.9051 72.1251 42.9134 72.1251H45.7226C46.2749 72.1251 46.7226 71.6774 46.7226 71.1251V58.4568C46.7226 57.9045 46.2749 57.4568 45.7226 57.4568H42.9134C41.905 57.4568 41.2221 58.2638 41.2221 59.2721V59.2721Z" fill="url(#paint8_linear_516_3695)"/>
<path d="M83.5352 57.4569C83.5352 57.4569 83.5352 57.4569 83.5352 57.4569H80.726C80.1737 57.4569 79.726 57.9046 79.726 58.4569V71.1252C79.726 71.6775 80.1737 72.1252 80.726 72.1252H83.5352C84.5435 72.1252 85.2265 71.2083 85.2265 70.1954V59.2721C85.2265 58.2638 84.5435 57.4568 83.5352 57.4568C83.5352 57.4568 83.5352 57.4568 83.5352 57.4569Z" fill="url(#paint9_linear_516_3695)"/>
<path fill-rule="evenodd" clip-rule="evenodd" d="M68.9044 3.33811L27.9786 91.0744C18.1395 81.7769 12 68.6054 12 54C12 25.8335 34.8335 3 63 3C64.997 3 66.9673 3.11478 68.9044 3.33811Z" fill="white" fill-opacity="0.26"/>
<mask id="mask0_516_3695" style="mask-type:alpha" maskUnits="userSpaceOnUse" x="12" y="3" width="102" height="102">
<path d="M114 54C114 82.1665 91.1665 105 63 105C34.8335 105 12 82.1665 12 54C12 25.8335 34.8335 3 63 3C91.1665 3 114 25.8335 114 54Z" fill="url(#paint10_linear_516_3695)"/>
</mask>
<g mask="url(#mask0_516_3695)">
<path d="M86.6376 -18L95.9735 -13.6451L28.336 131.355L19 127.001L86.6376 -18Z" fill="white" fill-opacity="0.14"/>
</g>
</g>
<defs>
<filter id="filter0_d_516_3695" x="5" y="0" width="116" height="116" filterUnits="userSpaceOnUse" color-interpolation-filters="sRGB">
<feFlood flood-opacity="0" result="BackgroundImageFix"/>
<feColorMatrix in="SourceAlpha" type="matrix" values="0 0 0 0 0 0 0 0 0 0 0 0 0 0 0 0 0 0 127 0" result="hardAlpha"/>
<feOffset dy="4"/>
<feGaussianBlur stdDeviation="2"/>
<feComposite in2="hardAlpha" operator="out"/>
<feColorMatrix type="matrix" values="0 0 0 0 0 0 0 0 0 0 0 0 0 0 0 0 0 0 0.25 0"/>
<feBlend mode="normal" in2="BackgroundImageFix" result="effect1_dropShadow_516_3695"/>
<feBlend mode="normal" in="SourceGraphic" in2="effect1_dropShadow_516_3695" result="shape"/>
</filter>
<linearGradient id="paint0_linear_516_3695" x1="63.5258" y1="1.03846" x2="65.2982" y2="106.932" gradientUnits="userSpaceOnUse">
<stop stop-color="#FFF5DE"/>
<stop offset="0.203125" stop-color="#FFE097"/>
<stop offset="0.838542" stop-color="#CC9C56"/>
<stop offset="1" stop-color="#7A5B2D"/>
</linearGradient>
<linearGradient id="paint1_linear_516_3695" x1="63.5567" y1="-2.07692" x2="65.4334" y2="110.046" gradientUnits="userSpaceOnUse">
<stop stop-color="#FFF5DE"/>
<stop offset="0.203125" stop-color="#FFE097"/>
<stop offset="0.838542" stop-color="#CC9C56"/>
<stop offset="1" stop-color="#7A5B2D"/>
</linearGradient>
<linearGradient id="paint2_linear_516_3695" x1="42.5" y1="8" x2="65.0374" y2="101.392" gradientUnits="userSpaceOnUse">
<stop stop-color="#7A5B2D"/>
<stop offset="0.0260417" stop-color="#CC9C56"/>
<stop offset="0.510417" stop-color="#FFE097"/>
<stop offset="1" stop-color="#FFF5DE"/>
</linearGradient>
<linearGradient id="paint3_linear_516_3695" x1="45.3729" y1="19.3871" x2="89.9323" y2="90.1892" gradientUnits="userSpaceOnUse">
<stop stop-color="#FFF5DE"/>
<stop offset="0.0989583" stop-color="#FFE097"/>
<stop offset="1" stop-color="#CC9C56"/>
</linearGradient>
<linearGradient id="paint4_linear_516_3695" x1="55.642" y1="55.1655" x2="53.6835" y2="56.8545" gradientUnits="userSpaceOnUse">
<stop stop-color="white"/>
<stop offset="1" stop-color="#FFEAC1"/>
</linearGradient>
<linearGradient id="paint5_linear_516_3695" x1="72.1436" y1="55.1655" x2="70.185" y2="56.8545" gradientUnits="userSpaceOnUse">
<stop stop-color="white"/>
<stop offset="1" stop-color="#FFEAC1"/>
</linearGradient>
<linearGradient id="paint6_linear_516_3695" x1="75.935" y1="31" x2="68.3683" y2="51.8268" gradientUnits="userSpaceOnUse">
<stop stop-color="white"/>
<stop offset="1" stop-color="#FFEAC1"/>
</linearGradient>
<linearGradient id="paint7_linear_516_3695" x1="73.2594" y1="48.358" x2="54.9641" y2="72.9047" gradientUnits="userSpaceOnUse">
<stop stop-color="white"/>
<stop offset="1" stop-color="#FFEAC1"/>
</linearGradient>
<linearGradient id="paint8_linear_516_3695" x1="45.9793" y1="57.4568" x2="37.6852" y2="61.4803" gradientUnits="userSpaceOnUse">
<stop stop-color="white"/>
<stop offset="1" stop-color="#FFEAC1"/>
</linearGradient>
<linearGradient id="paint9_linear_516_3695" x1="84.4831" y1="57.4568" x2="76.189" y2="61.4802" gradientUnits="userSpaceOnUse">
<stop stop-color="white"/>
<stop offset="1" stop-color="#FFEAC1"/>
</linearGradient>
<linearGradient id="paint10_linear_516_3695" x1="63.5258" y1="1.03846" x2="65.2982" y2="106.932" gradientUnits="userSpaceOnUse">
<stop stop-color="#FFF5DE"/>
<stop offset="0.203125" stop-color="#FFE097"/>
<stop offset="0.838542" stop-color="#CC9C56"/>
<stop offset="1" stop-color="#7A5B2D"/>
</linearGradient>
</defs>
</svg>
